<svg xmlns="http://www.w3.org/2000/svg" width="256" height="256"><path fill-opacity=".016" d="M0 128.004v128.004l128.25-.254 128.25-.254.254-127.75L257.008 0H0v128.004m.485.496c0 70.4.119 99.053.265 63.672.146-35.38.146-92.98 0-128C.604 29.153.485 58.1.485 128.5" fill="#1976D2" fill-rule="evenodd"/><path fill-opacity=".115" d="M36.509 23.25C35.59 25.929 33 41.379 33 44.18c0 2.476.358 2.907 2.191 2.64 2.233-.326 2.773-1.614 4.327-10.32l.714-4 3.356 7.319c3.085 6.728 3.577 7.293 6.089 7 2.619-.306 2.803-.711 4.455-9.819 2.447-13.495 2.402-15.215-.382-14.82-1.86.265-2.439 1.279-3.341 5.844-1.711 8.66-1.824 8.685-5.205 1.125C42.457 23.004 41.652 22 39.473 22c-1.395 0-2.729.563-2.964 1.25m103.323.459c-6.65 4.125-9.157 16.057-4.377 20.836 5.15 5.151 15.894 2.123 19.802-5.581 2.532-4.99 1.748-11.703-1.714-14.681-3.217-2.767-9.737-3.04-13.711-.574m1.224 5.235c-2.479 2.479-3.583 8.203-2.112 10.951 1.481 2.767 7.052 2.872 9.49.178 2.241-2.477 3.493-8.037 2.446-10.867-1.077-2.913-7.015-3.071-9.824-.262m-77.678.501c-1.717.743-3.854 2.397-4.75 3.675-2.242 3.202-2.129 10.117.201 12.225 2.744 2.484 8.537 2.107 11.865-.772 2.571-2.223 2.65-2.487.945-3.149-1.115-.433-2.956-.077-4.589.888-2.071 1.223-3.007 1.331-3.889.449-2.365-2.365-1.105-3.261 4.587-3.261H73.5l.299-3.551c.483-5.751-4.693-8.981-10.421-6.504m44.253-.743c-.386.386-2.227.599-4.091.474-3.767-.254-3.94.034-5.028 8.324-.36 2.75-.906 6.048-1.212 7.329-.495 2.073-.243 2.293 2.304 2 2.584-.297 2.94-.808 3.688-5.299.937-5.623 2.143-7.53 4.763-7.53.996 0 2.095-.896 2.442-1.991.952-2.998-.964-5.209-2.866-3.307m10.869.701c-4.189 1.849-6.485 4.731-7.18 9.012-.48 2.957-.148 4.139 1.717 6.124 5.696 6.064 16.963.449 16.963-8.454 0-3.569-.431-4.377-3.25-6.096-3.79-2.311-4.267-2.345-8.25-.586m85.152-.722c-.397.398-2.247.62-4.111.495-3.34-.225-3.403-.153-4.395 5.048-2.559 13.417-2.579 12.956.538 12.598 2.521-.29 2.87-.803 3.484-5.13.78-5.494 2.053-7.44 5.155-7.882 1.55-.221 2.177-1.006 2.177-2.727 0-2.445-1.521-3.728-2.848-2.402m12.848.055c-5.85 1.074-9.5 5.382-9.5 11.214 0 4.242 3.098 7.05 7.777 7.05 4.431 0 7.648-1.988 9.729-6.011 2.11-4.08 1.857-7.314-.756-9.666-2.682-2.414-4.554-3.082-7.25-2.587M78.083 34.049c-1.43 6.669-1.368 10.47.193 11.765.701.582 4.189.974 7.75.872L92.5 46.5l1.154-5.5c.634-3.025 1.197-6.994 1.25-8.82.084-2.892-.193-3.278-2.154-3-1.883.268-2.442 1.292-3.426 6.279-1.328 6.727-3.758 9.536-6.166 7.127-1.175-1.175-1.229-2.248-.296-5.952C84.523 30.038 84.349 29 81.583 29c-2.094 0-2.562.675-3.5 5.049m83.424-3.667C160.23 34.722 159 41.375 159 43.943c0 2.505.407 3.057 2.252 3.057 1.937 0 2.463-.876 3.75-6.25 1.351-5.637 1.768-6.281 4.248-6.566 1.512-.174 2.75-.7 2.75-1.169 0-.468.259-1.527.576-2.352.471-1.228-.451-1.491-5.082-1.449-3.265.029-5.797.523-5.987 1.168m12.576 3.667c-1.408 6.563-1.371 10.263.117 11.751 1.474 1.474 5.27 1.554 7.866.165 1.333-.714 1.934-.714 1.934 0 0 .569 1.063 1.035 2.363 1.035 2.171 0 2.463-.623 3.602-7.686.682-4.227 1.481-8.313 1.775-9.079.397-1.034-.211-1.309-2.347-1.065-2.662.305-2.985.808-4.227 6.593-1.454 6.772-3.916 9.448-6.181 6.719-.939-1.132-.964-2.51-.105-5.921 1.642-6.518 1.463-7.561-1.297-7.561-2.094 0-2.562.675-3.5 5.049m-110.374-.425C62.223 35.11 63.112 36 66.083 36c2.02 0 2.942-.431 2.672-1.25-.467-1.418-3.972-2.2-5.046-1.126m54.558.626c-1.971 2.52-2.088 5.749-.289 7.971 1.56 1.927 2.009 2.035 3.462.829 4.389-3.643 4.493-10.05.163-10.05-1.297 0-2.798.563-3.336 1.25m95.936.006c-2.1 2.53-2.413 6.391-.659 8.145 1.477 1.477 1.954 1.513 3.803.285 2.269-1.507 3.56-5.096 2.854-7.936-.506-2.04-4.446-2.365-5.998-.494M129 62.146c-4.125.447-12 1.182-17.5 1.633-6.518.534-11.618 1.55-14.646 2.918-2.555 1.154-6.011 2.398-7.681 2.765-1.669.367-3.6 1.348-4.291 2.18-.691.833-3.512 2.657-6.269 4.054-7.9 4.003-12.675 7.31-18.789 13.011C56.703 91.618 53.695 94 53.14 94c-1.126 0-5.958 6.497-9.14 12.29-2.228 4.056-6.063 6.162-9.603 5.273-3.169-.795-11.611-10.45-15.059-17.223-3.202-6.288-5.375-7.521-8.412-4.773C9.207 91.123 9 92.753 9 104.761v13.451l3.068 3.874c1.97 2.487 4.478 4.297 7 5.053 3.878 1.161 5.065 3.301 3.004 5.411-2.619 2.68-5.171 12.402-6.034 22.993-.51 6.26-1.402 12.269-1.983 13.354-.58 1.084-1.055 6.62-1.055 12.302 0 8.42-.37 11.021-2 14.062-2.881 5.376-2.545 9.722.967 12.492 3.479 2.744 5.206 2.206 7.657-2.382l1.876-3.512-2.75-2.013c-3.841-2.812-3.437-4.654 1.5-6.841 3.215-1.423 6.674-4.819 14.203-13.943C39.927 172.428 44.989 167 45.703 167c1.553 0 1.532-.296.284 4.007-1.674 5.77-.461 8.814 3.835 9.618 2.023.378 4.204 1.404 4.846 2.28 1.363 1.856 1.329 1.886 4.158-3.686 2.704-5.323 2.757-9.75.17-13.993-2.52-4.133-2.538-6.226-.055-6.226 1.068 0 2.219-.45 2.559-1 .34-.55 1.863-1 3.385-1 3.055 0 5.861-2.571 8.731-8 1.394-2.637 1.84-5.596 1.808-12-.023-4.675.123-6.588.324-4.25.323 3.74.66 4.25 2.809 4.25 2.282 0 2.443-.348 2.443-5.277 0-5.808 1.345-8.409 6.103-11.797 2.76-1.965 3.222-2.03 4.605-.646 1.297 1.296 1.37 2.491.467 7.618-1.562 8.864-3.541 12.231-10.101 17.18-3.223 2.432-6.324 5.147-6.889 6.033-1.383 2.167 1.007 20.427 3.24 24.744 1.656 3.203 1.647 3.241-1.63 6.785-4.992 5.399-13.159 11.168-18.266 12.902-4.773 1.62-6.529 1.324-6.529-1.101 0-2.073-1.257-1.815-7.735 1.584C38.407 198.099 29 205.962 29 207.783c0 1.363 4.675 2.438 7.335 1.686 1.191-.336 4.865-1.889 8.165-3.451 5.617-2.658 10.06-4.113 16.836-5.513 1.56-.323 5.023-2.631 7.695-5.131 3.565-3.335 5.38-4.378 6.821-3.921 3.284 1.042 3.31 3.45.091 8.13-1.678 2.438-2.792 4.852-2.477 5.362.759 1.228 6.477 4.055 8.201 4.055.748 0 2.243-.551 3.322-1.225 1.652-1.032 2.192-.913 3.425.75 1.32 1.781 1.692 1.834 3.775.541 6.035-3.745 8.645-4.503 15.853-4.603 4.835-.067 8.604-.678 10.5-1.704 1.633-.882 7.637-2.058 13.402-2.623 9.145-.897 10.982-1.404 14.779-4.08 2.658-1.874 5.582-3.057 7.556-3.06 1.772-.002 4.694-.902 6.495-2 1.801-1.098 4.686-1.996 6.412-1.996 3.134 0 11.814-4.345 11.814-5.913 0-.456 3.262-2.747 7.25-5.093 7.377-4.339 10.187-4.923 16.936-3.52 2.842.591 4.687.282 8.065-1.354 2.625-1.27 6.332-2.12 9.249-2.12 10.903 0 26.018-7.348 25.312-12.305-.284-1.995-.859-2.186-6.312-2.094-3.3.056-6.9.199-8 .317-3.031.327-10.837-1.059-12.25-2.175-.731-.578-1.257-3.326-1.267-6.615-.028-8.92-2.729-23.089-5.469-28.689-1.383-2.826-2.514-5.578-2.514-6.114 0-.537-1.168-2.067-2.595-3.401-1.427-1.333-4.451-5.541-6.719-9.351-6.286-10.558-21.282-26.558-24.901-26.568-.944-.003-3.307-1.403-5.253-3.111-2.175-1.909-7.291-4.405-13.284-6.479-10.339-3.578-13.705-3.848-28.248-2.269m13.44 8.472c.454 1.809.114 3.217-1.102 4.561-1.513 1.672-1.555 2.072-.298 2.867.803.508 2.979.93 4.835.939 3.265.015 3.354-.089 2.735-3.183-.839-4.199-3.26-7.802-5.241-7.802-1.211 0-1.431.619-.929 2.618m-17.085-.021c-4.8 2.367-7.462 5.78-8.075 10.352-.452 3.368-.163 4.512 1.54 6.098 1.153 1.074 2.549 1.953 3.103 1.953 1.476 0 3.162-3.615 2.496-5.351-.588-1.533 2.793-4.104 3.917-2.979.33.329 1.964.034 3.632-.657 2.705-1.12 3.032-1.715 3.032-5.518 0-3.574-.363-4.359-2.25-4.865-3.202-.858-3.873-.77-7.395.967m27.536.653c-.061.138-.279 3.098-.485 6.578-.272 4.579-.047 6.219.813 5.932.654-.218 1.545-1.771 1.981-3.452 1.431-5.522 3.219-6.052 9.307-2.759 5.317 2.876 8.846 2.706 4.991-.24-4.774-3.649-15.887-7.704-16.607-6.059m-54.072 3.331c-5.301 2.703-5.33 2.737-6.281 7.169-.917 4.275 1.377 4.407 4.623.266 5.96-7.602 7.048-9.139 6.706-9.469-.202-.194-2.474.721-5.048 2.034m8.672 4.184c-.556.404-2.238 2.63-3.739 4.947-1.502 2.316-4.085 5.214-5.741 6.438-2.937 2.171-4.036 4.85-1.99 4.85 2.334 0 3.193 4.59 1.691 9.033-1.393 4.121-1.362 4.43.611 6.028 1.78 1.441 2.167 3.182 2.68 12.061.578 10.009 1.522 13.393 4.78 17.128 1.985 2.276 4.395 2.21 9.217-.25 2.156-1.1 5.031-2 6.388-2 3.002 0 6.612-4.253 6.612-7.79 0-1.387-1.125-3.996-2.5-5.799-1.375-1.803-2.5-4.158-2.5-5.235s-.89-3.919-1.978-6.317c-1.088-2.397-1.988-6.442-2-8.987-.022-4.677-2.139-11.208-4.007-12.363-.598-.369-1.015.572-1.015 2.292 0 1.606-1.165 4.637-2.589 6.735-1.899 2.798-2.45 4.635-2.067 6.889 2.541 14.958 3.765 20.038 5.213 21.638 3.292 3.637-.586 6.765-4.069 3.282-3.037-3.037-6.039-13.774-7.181-25.679-.469-4.895-.224-6.286 1.523-8.649 1.145-1.549 2.392-4.099 2.772-5.667.379-1.567 1.568-4.106 2.642-5.642 3.023-4.323.923-9.619-2.753-6.943M84.2 80.2c-1.623 1.623-1.511 2.8.265 2.8.805 0 1.946-.9 2.535-2 .822-1.536.76-2-.265-2-.734 0-1.875.54-2.535 1.2m74.8 2.615c0 2.333 6.429 5.492 9.355 4.597 4.98-1.524 4.836-2.654-.578-4.524-6.774-2.34-8.777-2.357-8.777-.073m-88.038 3.144c-2.571 2.199-3.012 2.97-1.712 3 .963.023 1.75-.311 1.75-.741s2.025-1.379 4.5-2.11C80.55 84.617 81.44 83 77.212 83c-1.642 0-4.21 1.216-6.25 2.959m63.533.857c-2.919 1.361-4.713 3.197-6.62 6.775-3.741 7.021-4.23 10.792-1.974 15.223 1.032 2.027 2.464 5.654 3.183 8.06l1.307 4.373 2.304-2.679c2.835-3.296 2.949-6.675.305-9.068-2.548-2.306-2.691-6.5-.222-6.5.978 0 2.54.89 3.471 1.978 1.862 2.174 2.828 1.976 9.001-1.851 3.74-2.318 4.538-4.333 2.804-7.074-.755-1.193-1.259-1.021-2.881.982-1.95 2.408-2.012 2.416-7.819.946-4.694-1.187-5.854-1.877-5.854-3.481 0-1.709.667-2 4.578-2 2.519 0 5.309-.6 6.202-1.333.92-.754 2.512-1.05 3.672-.682 1.6.508 2.048.21 2.048-1.359 0-2.475-.665-2.905-5.595-3.615-2.692-.387-5.15.019-7.91 1.305M180 86c0 .55.45 1 1 1s1-.45 1-1-.45-1-1-1-1 .45-1 1m-26.439 3.933c-2.495 2.756-1.22 7.463 2.865 10.579 5.061 3.86 7.535 2.665 4.042-1.953-.807-1.068-1.468-2.771-1.468-3.785 0-1.492.358-1.653 1.87-.844 2.692 1.441 4.823 6.648 5.615 13.725.64 5.716.537 6.203-1.453 6.835-3.26 1.034-8.314 8.466-6.909 10.159.617.743 1.547 1.351 2.066 1.351 2.261 0 7.769 5.438 9.245 9.128.894 2.234 2.157 3.855 2.838 3.643 2.229-.69 5.094-8.106 5.666-14.662.553-6.349 1.414-7.806 3.741-6.328 1.393.885-.523 12.518-3.066 18.602-1.324 3.17-1.342 3.784-.127 4.25.782.3 2.326-.088 3.431-.862 4.821-3.377 8.203-10.404 5.505-11.439-.782-.3-1.422-1.199-1.422-1.998 0-.799.359-1.23.798-.959 1.71 1.057 3.015-1.105 3.851-6.375.846-5.332.964-5.492 3.862-5.237 4.975.438 5.786-.811 3.458-5.323-5.352-10.373-7.959-12.541-10.653-8.858-1.779 2.433-1.666 7.883.196 9.428 1 .83 1.189 1.645.558 2.406-.592.712-.602 1.71-.028 2.618 1.375 2.174 1.152 6.319-.46 8.523-1.889 2.583-2.853 1.383-3.046-3.793-.087-2.345-.744-5.341-1.459-6.657-1.956-3.6-.932-12.031 1.931-15.904 2.95-3.991 1.658-6.175-2.739-4.629-2.039.717-2.915 1.857-3.418 4.445-.372 1.915-.993 4.494-1.38 5.731-.442 1.41-.287 2.25.412 2.25 1.796 0 1.283 3.001-.633 3.708-2.801 1.034-3.218 2.352-3.25 10.292-.034 8.382-.918 11.008-2.901 8.619-.751-.904-1.234-4.782-1.249-10.017-.02-7.193.395-9.426 2.623-14.137 1.456-3.078 2.508-6.804 2.337-8.28-.298-2.584-.508-2.672-5.56-2.343-2.887.188-5.25-.078-5.25-.592 0-.752-6.311-3.25-8.211-3.25-.263 0-1.266.87-2.228 1.933m22.189-1.271c.688.278 1.813.278 2.5 0 .688-.277.125-.504-1.25-.504s-1.937.227-1.25.504m-95.232 3.281c-.628 1.978 2.529 9.35 4.534 10.589 1.841 1.138 2.447-.474 2.487-6.615L87.578 90h-3.222c-2.312 0-3.395.549-3.838 1.943m-9.29 2.158c-3.813 1.428-3.922 3.89-.316 7.112 2.615 2.336 3.527 2.668 4.69 1.703 1.253-1.04 1.254-1.486.013-3.38-.786-1.201-1.584-3.106-1.772-4.235-.281-1.682-.752-1.898-2.615-1.2M14 105.541V117.2l3.4 3.4c1.87 1.87 4.292 3.4 5.381 3.4 1.954 0 7.219-5.818 7.219-7.977 0-.611-2.257-3.823-5.016-7.138s-5.902-7.765-6.986-9.888C14.541 92.221 14 93.107 14 105.541m46.074-10.587c-1.332.823-.691 3.046.878 3.046 1.141 0 2.142-2.824 1.207-3.402-.415-.256-1.353-.096-2.085.356m90.604 11.016c-1.374 1.634-3.994 3.806-5.822 4.827-3.548 1.982-8.696 9.658-10.845 16.17-1.079 3.268-1.079 4.246-.002 5.544 1.165 1.404 1.648 1.245 4.447-1.468 2.189-2.122 4.123-3.043 6.388-3.043 2.548 0 3.614-.636 4.941-2.948.931-1.622 2.654-3.387 3.83-3.923 3.035-1.382 8.385-9.703 8.385-13.04 0-2.398-.34-2.747-2.311-2.37-1.348.258-2.857-.217-3.622-1.139-1.821-2.193-2.527-2.011-5.389 1.39m-90.489 2.557C57.885 111.016 56 113.668 56 114.42c0 1.924 2.978 2.843 4.669 1.44 1.89-1.569 3.076-.236 4.078 4.584 1.486 7.151 2.837 5.03 2.972-4.668.117-8.371-.65-11.776-2.652-11.776-.379 0-2.574 2.037-4.878 4.527m-9.78-1.151c-.361.941-.368 1.998-.016 2.35.352.353 1.173.108 1.824-.543.902-.902.905-1.461.016-2.35-.89-.89-1.324-.761-1.824.543m25.192 2.927c-1.661 1.214-1.669 1.396-.107 2.692 1.941 1.611 4.797.35 5.329-2.352.396-2.012-2.664-2.211-5.222-.34m73.076 4.512c-3.106 3.242-3.673 7.52-.927 7 1.184-.224 1.857-1.458 2.081-3.814.183-1.916.845-3.8 1.471-4.188.627-.387.895-.949.596-1.248-.299-.299-1.748.713-3.221 2.25M42 119c0 .55.45 1 1 1s1-.45 1-1-.45-1-1-1-1 .45-1 1m157 2.5c0 2.157.404 3.369 1 3 .55-.34 1-1.69 1-3s-.45-2.66-1-3c-.596-.369-1 .843-1 3M47 121c0 .55.45 1 1 1s1-.45 1-1-.45-1-1-1-1 .45-1 1m146.863-.75c-.075.138-.253 2.838-.395 6-.232 5.134-.049 5.75 1.702 5.75 1.079 0 2.88.492 4.003 1.093 3.032 1.623 4.431-.221 2.925-3.857-1.016-2.452-1.636-2.811-4.213-2.432-2.985.438-3.014.398-2.342-3.18.45-2.399.304-3.624-.432-3.624-.611 0-1.173.112-1.248.25m11.086 3.024c1.019 4.517 3.268 8.574 3.826 6.9.538-1.612-2.62-10.174-3.752-10.174-.447 0-.48 1.473-.074 3.274M32 122.5c0 .825.45 1.5 1 1.5s1-.675 1-1.5-.45-1.5-1-1.5-1 .675-1 1.5m21.531.793c-.428.986-.497 2.074-.155 2.417 1.016 1.015 1.835-.411 1.367-2.382-.414-1.747-.468-1.748-1.212-.035m-12.072 2.774c-.363.586-.419 1.306-.126 1.6.717.716 2.667-.546 2.667-1.726 0-1.278-1.726-1.193-2.541.126M154 128.355c0 1.703 1.246 3.142 4.5 5.199 7.995 5.054 4.321 6.382-4 1.446-7.38-4.378-14.5-3.837-14.5 1.101 0 .935 1.101 4.077 2.447 6.981 2.335 5.04 2.486 6.918.557 6.918-.482 0-2.143-2.322-3.691-5.16-1.547-2.837-3.821-5.814-5.054-6.615-2.082-1.353-2.449-1.233-5.184 1.695-2.303 2.465-3.482 3.016-5.415 2.531-1.558-.391-3.44.014-5.091 1.096-1.44.944-4.064 2.011-5.83 2.373-2.124.434-3.999 1.827-5.539 4.118-2.768 4.114-4.211 4.799-10.313 4.892-4.203.064-5.026.511-9.25 5.027-4.897 5.235-5.361 7.027-3.982 15.372.464 2.811 1.275 4.074 3.049 4.749 3.286 1.249 1.832 3.279-1.825 2.548-2.627-.526-2.879-.33-2.879 2.244 0 3.542 2.836 6.247 5.75 5.485 1.27-.332 4.137.38 6.882 1.709 4.647 2.25 4.745 2.255 7.787.412 1.695-1.027 5.781-2.116 9.081-2.421 4.42-.409 6-.95 6-2.055 0-.974-.813-1.412-2.32-1.249-1.881.203-2.259-.169-2-1.966.406-2.815 6.238-6.785 9.968-6.785 2.812 0 3.273-.697 2.886-4.361-.313-2.96 2.163-1.436 5.357 3.299 5.705 8.457 16.135 12.536 20.609 8.062 3.362-3.362 2.611-7.304-2-10.5-2.757-1.911-4-3.507-4-5.136 0-2.02-.493-2.364-3.386-2.364-1.862 0-4.674-.672-6.25-1.494-5.229-2.727-10.6-1.92-19.918 2.994-4.692 2.475-9.387 4.5-10.432 4.5-1.046 0-2.662 1.289-3.593 2.864-1.814 3.072-6.222 6.136-8.825 6.136-2.008 0-2.052-1.377-.096-3 .825-.685 1.5-2.042 1.5-3.015 0-.974-.675-2.03-1.5-2.347-2.15-.825-1.854-3.638.383-3.638 1.043 0 2.117.893 2.407 2 .764 2.921 5.073 2.621 7.115-.495.899-1.372 3.289-3.186 5.311-4.031 2.022-.845 5.115-2.633 6.873-3.974 2.983-2.275 3.245-2.977 3.908-10.469.391-4.417 1.059-8.031 1.485-8.031 2.061 0 3.239 3.219 2.612 7.14-.68 4.248 1.131 7.86 3.94 7.86 1.339 0 3.202-4.062 3.669-8 .169-1.424.943-2.5 1.797-2.5 1.181 0 1.433 1.102 1.185 5.18-.369 6.078.99 7.321 7.999 7.318 6.501-.002 10.922-2.674 13.516-8.167 1.212-2.568 4.297-6.675 6.856-9.127 2.558-2.452 4.197-4.738 3.642-5.082-.556-.343-.774-1.526-.486-2.628.288-1.103-.044-2.689-.739-3.526-1.247-1.503-9.652-7.468-10.523-7.468-.248 0-.45 1.06-.45 2.355M28 128.5c0 .825.45 1.5 1 1.5s1-.675 1-1.5-.45-1.5-1-1.5-1 .675-1 1.5m19-.5c0 .55.675 1 1.5 1s1.5-.45 1.5-1-.675-1-1.5-1-1.5.45-1.5 1m13.154 2.552c.191.98.951 1.984 1.692 2.23.86.287 1.22-.194 1-1.334-.191-.98-.951-1.984-1.692-2.23-.86-.287-1.22.194-1 1.334M36 131c0 .55.45 1 1 1s1-.45 1-1-.45-1-1-1-1 .45-1 1m5 3c0 .55.675 1 1.5 1s1.5-.45 1.5-1-.675-1-1.5-1-1.5.45-1.5 1m166.719-.385c-1.231 1.23-.789 5.91.749 7.944 1.38 1.824 1.466 1.731 1.43-1.559-.045-4.128-1.163-7.402-2.179-6.385M47 135.059c0 .582.45.781 1 .441s1-.816 1-1.059-.45-.441-1-.441-1 .477-1 1.059m10.192.016c.197.591.785 1.075 1.308 1.075s1.111-.484 1.308-1.075c.197-.591-.391-1.075-1.308-1.075s-1.505.484-1.308 1.075m37.808.539c0 .887-.996 3.385-2.213 5.551-2.506 4.459-1.75 7.089 2.205 7.673 1.924.284 2.196-.012 1.711-1.865-.317-1.212-.091-2.98.502-3.929 1.222-1.957.242-9.044-1.25-9.044-.525 0-.955.726-.955 1.614M27.5 136c-.34.55-.168 1 .382 1s1.278-.45 1.618-1c.34-.55.168-1-.382-1s-1.278.45-1.618 1m4.5 2c0 2.274 2.508 2.725 3.324.598.628-1.636-.11-2.598-1.991-2.598-.733 0-1.333.9-1.333 2m20 0c0 .55.45 1 1 1s1-.45 1-1-.45-1-1-1-1 .45-1 1m138.655.829c-2.227 2.46-2.136 2.729 1.42 4.202 2.831 1.173 3.281 1.067 5.683-1.334l2.607-2.608-2.748-1.044c-3.83-1.457-5.06-1.318-6.962.784m-128.112.102c-.317.512-.118 1.213.441 1.559.559.345 1.016-.074 1.016-.931 0-1.757-.6-2.015-1.457-.628m86.457 4.6c0 5.905 1.618 7.861 4.513 5.458 3.108-2.579 1.158-10.989-2.548-10.989-1.716 0-1.965.7-1.965 5.531m-105.417-3.665c-.431.697-.513 1.537-.183 1.867.895.895 1.871-.421 1.387-1.871-.338-1.016-.574-1.016-1.204.004M48 143.5c0 .825.45 1.5 1 1.5s1-.675 1-1.5-.45-1.5-1-1.5-1 .675-1 1.5m118.761 2.562c-4.06 2.144-6.246 4.894-7.302 9.188-.628 2.555-.456 2.75 2.433 2.75 1.99 0 3.108.501 3.108 1.393 0 1.844-2.213 2.607-7.559 2.607-3.524 0-4.704.471-5.952 2.377-1.279 1.951-1.342 2.852-.352 5.024 1.469 3.224 4.255 4.033 10.003 2.904 4.022-.791 4.385-1.119 4.686-4.245.179-1.864 1.416-4.994 2.75-6.956 1.333-1.963 2.424-3.957 2.424-4.432 0-1.968 4.278-6.672 6.068-6.672 2.439 0 2.491-2.184.103-4.345-2.391-2.164-5.792-2.031-10.41.407m-136.569.013c.197.591.786 1.075 1.308 1.075.523 0 1.111-.484 1.308-1.075.197-.591-.391-1.075-1.308-1.075s-1.505.484-1.308 1.075M62 145.941c0 .518.45 1.219 1 1.559.55.34 1-.084 1-.941S63.55 145 63 145s-1 .423-1 .941m137.035.993c-1.312 2.452-1.361 13.066-.061 13.066 1.504 0 4.026-5.556 4.026-8.869 0-5.775-1.992-7.884-3.965-4.197M54 148.5c0 .825.45 1.5 1 1.5s1-.675 1-1.5-.45-1.5-1-1.5-1 .675-1 1.5m30 1.5c0 .55.45 1 1 1s1-.45 1-1-.45-1-1-1-1 .45-1 1m101.2 1.2c-1.456 1.456-1.58 3.8-.2 3.8.55 0 1-.506 1-1.125 0-.725 1.104-.904 3.105-.504 2.559.512 2.999.343 2.5-.957-.333-.868-.605-1.766-.605-1.996 0-.957-4.694-.324-5.8.782m-159.657.731c-.317.512-.118 1.213.441 1.559.559.345 1.016-.074 1.016-.931 0-1.757-.6-2.015-1.457-.628M46.5 152c-.34.55-.168 1 .382 1s1.278-.45 1.618-1c.34-.55.168-1-.382-1s-1.278.45-1.618 1m12.194-.361c-.933.934.194 2.361 1.865 2.361.793 0 1.441-.675 1.441-1.5 0-1.506-2.111-2.056-3.306-.861m-27.517 2.028c.486 2.509 2.823 2.853 2.823.416 0-1.228-.646-2.083-1.573-2.083-.932 0-1.442.68-1.25 1.667M177.2 155.2c-.66.66-1.2 2.444-1.2 3.965 0 1.647-1.214 4.148-3 6.182-3.645 4.151-3.699 4.653-.5 4.653 1.743 0 2.5.546 2.5 1.805 0 1.464-1.386 2.038-7.338 3.038-7.477 1.256-9.662 2.397-9.662 5.043 0 .817-.977 2.525-2.171 3.796-2.971 3.162-1.5 4.134 2.774 1.833 2.359-1.271 3.709-2.826 4.085-4.707.694-3.47 1.646-3.564 3.13-.308 1.461 3.207 3.248 3.157 7.241-.203 4.304-3.622 5.602-7.15 6.458-17.547.707-8.6.244-10.111-2.317-7.55m-137.657.731c-.317.512-.118 1.213.441 1.559.559.345 1.016-.074 1.016-.931 0-1.757-.6-2.015-1.457-.628m12.457.51c0 .793.45 1.719 1 2.059.55.34 1-.309 1-1.441 0-1.132-.45-2.059-1-2.059s-1 .648-1 1.441M79.5 156c-.34.55.057 1 .882 1s1.778-.45 2.118-1c.34-.55-.057-1-.882-1s-1.778.45-2.118 1M22 158.559c0 .857.457 1.276 1.016.931.559-.346.758-1.047.441-1.559-.857-1.387-1.457-1.129-1.457.628m22.394-.142c-.828 2.157.323 4.844 1.857 4.333.687-.229 1.249-1.467 1.249-2.75 0-2.741-2.227-3.876-3.106-1.583m56.606.963c0 3.369 2.009 7.62 3.601 7.62 2.119 0 2.36-1.428.941-5.566-1.585-4.621-4.542-5.959-4.542-2.054m105.857 1.977c-2.278 4.688-2.041 6.871.514 4.75 1.464-1.215 3.161-7.908 2.239-8.83-.285-.285-1.524 1.551-2.753 4.08m-179.218-2.663c-1.126 1.126-.685 2.306.861 2.306.825 0 1.5-.423 1.5-.941 0-1.261-1.562-2.164-2.361-1.365m6.028 1.973c-1.218 1.218-.689 3.333.833 3.333.833 0 1.5-.889 1.5-2 0-1.992-1.066-2.601-2.333-1.333M19.15 163.95c.22.66.726 1.166 1.125 1.125 1.196-.124.964-1.495-.325-1.925-.66-.22-1.02.14-.8.8M38.5 165c-.816 1.32.38 3.192 1.569 2.457 1.215-.75 1.207-3.457-.01-3.457-.518 0-1.219.45-1.559 1M24 166.441c0 .857.45 1.559 1 1.559s1-.423 1-.941-.45-1.219-1-1.559c-.55-.34-1 .084-1 .941m30 1.059c0 .825.45 1.5 1 1.5s1-.675 1-1.5-.45-1.5-1-1.5-1 .675-1 1.5m130 .5c0 1.1.45 2 1 2s1-.9 1-2-.45-2-1-2-1 .9-1 2m-156 1.5c0 .825.45 1.5 1 1.5s1-.675 1-1.5-.45-1.5-1-1.5-1 .675-1 1.5m107 .5c0 .55.45 1 1 1s1-.45 1-1-.45-1-1-1-1 .45-1 1m-116 1.583c0 .871.534 1.406 1.188 1.188 1.854-.618 2.161-2.771.395-2.771-.871 0-1.583.713-1.583 1.583m14.345-.04c-.326.849-.341 1.794-.035 2.1.876.876 2.69-.609 2.69-2.202 0-1.919-1.908-1.845-2.655.102m-9.802 3.388c-.317.512-.118 1.213.441 1.559.559.345 1.016-.074 1.016-.931 0-1.757-.6-2.015-1.457-.628m3.991 2.421c-1.188.868-1.62 1.982-1.196 3.087.766 1.995 2.555 1.678 4.068-.721 1.555-2.466-.463-4.128-2.872-2.366m-9.991 1.579c-.317.512-.118 1.213.441 1.559.559.345 1.016-.074 1.016-.931 0-1.757-.6-2.015-1.457-.628M123 181.895c-1.475.41-2.466 1.394-2.417 2.4.046.938.159 3.551.25 5.806l.167 4.102 7.25-.493c12.538-.853 13.315-2.083 5.34-8.46-5.414-4.33-6.196-4.577-10.59-3.355m-101 3.022c0 1.228.646 2.083 1.573 2.083.932 0 1.442-.68 1.25-1.667-.486-2.509-2.823-2.853-2.823-.416m-6 2.583c0 .825.45 1.5 1 1.5s1-.675 1-1.5-.45-1.5-1-1.5-1 .675-1 1.5M0 232.011c0 1.381 256.206.871 256.667-.511.221-.664-42.83-.914-128.167-.742-84.508.169-128.5.598-128.5 1.253" fill="#1976D2" fill-rule="evenodd"/><path fill-opacity=".392" d="M37 22.182c0 .177-.9 5.045-2 10.818s-2 11.284-2 12.248c0 2.676 3.862 2.241 4.424-.498a738.995 738.995 0 0 1 1.667-7.701l1.205-5.451 2.439 5.451c1.342 2.998 2.839 6.464 3.328 7.701 1.342 3.401 5.601 3.067 6.374-.5 1.831-8.457 3.38-20.833 2.693-21.52-2.076-2.076-3.973.612-4.654 6.593-.387 3.397-.959 6.604-1.271 7.125-.312.522-2.174-2.403-4.136-6.5-2.689-5.611-4.124-7.527-5.819-7.768-1.237-.175-2.25-.174-2.25.002m103 2c-7.257 4.889-9.268 14.704-4.077 19.895 5.089 5.089 14.438 2.968 18.25-4.139 2.383-4.444 2.402-12.006.038-14.926-2.773-3.424-9.757-3.832-14.211-.83m.923 4.741C138.686 31.16 138 32.767 138 35.768c0 8.688 9.147 9.912 12.585 1.684 1.93-4.621 1.778-7.089-.585-9.452-2.788-2.788-5.657-2.496-9.077.923M60.954 31.75c-4.152 3.71-5.152 10.052-2.07 13.134C60.048 46.048 62.147 47 63.55 47c3.004 0 8.45-2.615 8.45-4.057 0-1.85-3.054-2.204-4.866-.564-2.344 2.121-3.835 2.049-5.064-.248C60.649 39.475 61.573 39 68.167 39 73.981 39 74 38.99 74 36c0-6.758-7.504-9.202-13.046-4.25m18.191-.573c-1.665 4.492-2.291 12.942-1.069 14.414 1.448 1.745 6.068 1.839 7.849.159 1.06-1 1.417-1 1.783 0 .686 1.87 4.082 1.507 4.669-.5C93.084 42.831 95 31.924 95 30.316c0-1.745-3.639-1.698-4.313.056-.289.755-.842 3.48-1.229 6.057-.507 3.383-1.377 5.127-3.131 6.277-3.563 2.334-4.72.594-3.911-5.881.904-7.236.899-7.281-.86-7.648-.892-.185-1.916.664-2.411 2m19.958 5.48c-.707 4.211-1.518 8.261-1.802 9-.345.901.3 1.343 1.962 1.343 2.229 0 2.595-.599 3.655-5.991 1.161-5.898 3.068-8.282 5.832-7.291.688.247 1.25-.002 1.25-.553s.273-1.713.607-2.583c.714-1.861-2.552-2.237-4.294-.495-.783.783-1.275.783-1.759 0-.37-.598-1.458-1.087-2.418-1.087-1.397 0-2.003 1.529-3.033 7.657m18.205-6.647c-2.709 1.091-5.079 4.593-5.905 8.726-.505 2.522-.127 3.631 1.94 5.698 5.84 5.839 16.657.117 16.657-8.812 0-4.89-6.905-7.943-12.692-5.612m44.315.74C160.9 33.222 159 44.092 159 45.753c0 .855.834 1.264 2.176 1.067 1.778-.262 2.383-1.366 3.315-6.052 1.301-6.544 1.6-6.995 4.727-7.153 3.107-.157 3.929-4.615.852-4.615-1.139 0-2.07.54-2.07 1.2 0 .933-.267.933-1.2 0-1.762-1.762-4.589-1.462-5.177.55m13.477.5c-1.724 4.558-2.341 12.754-1.075 14.28 1.487 1.792 6.117 1.928 7.817.228.988-.988 1.41-.968 2.069.099.456.737 1.652 1.181 2.659.987 1.383-.266 2.132-1.937 3.068-6.848 1.785-9.361 1.706-10.996-.531-10.996-2.189 0-2.686 1.012-3.649 7.429-.729 4.864-4.125 8.513-6.536 7.023-1.151-.712-.696-9.271.684-12.867.438-1.141.011-1.585-1.524-1.585-1.292 0-2.467.886-2.982 2.25m21.435-1C195.632 33.053 194 42.26 194 44.549c0 1.727.552 2.451 1.87 2.451 1.487 0 2.111-1.226 3.048-5.991 1.161-5.898 3.068-8.282 5.832-7.291.688.247 1.25-.002 1.25-.553s.273-1.713.607-2.583c.738-1.924-2.578-2.211-4.407-.382-.933.933-1.2.933-1.2 0 0-1.594-3.95-1.549-4.465.05m14.576 1.31c-3.462 2.913-4.945 8.315-3.283 11.963 2.205 4.837 12.196 4.141 15.623-1.089 2.385-3.639 2.025-9.987-.674-11.877-3.361-2.355-8.166-1.942-11.666 1.003M63.649 33.836c-1.651 1.824-1.626 1.938.561 2.523 4.012 1.075 4.945.751 4.61-1.599-.414-2.897-2.972-3.354-5.171-.924m54.424.799C113.38 40.6 117.797 47.203 123 42c3.281-3.281 2.187-10-1.627-10-.676 0-2.161 1.186-3.3 2.635M214 34c-3.84 3.84-1.374 11.972 2.834 9.343 3.192-1.994 4.698-5.88 3.39-8.75-1.415-3.106-3.511-3.306-6.224-.593m-75.977 28.115c-1.363.544-5.638 1.172-9.5 1.395-18.108 1.049-27.24 2.264-31.563 4.203-2.497 1.12-5.953 2.346-7.681 2.726-1.727.379-3.698 1.361-4.379 2.181-.681.821-3.974 2.849-7.319 4.508-3.345 1.659-6.791 3.659-7.66 4.444-.868.786-1.993 1.439-2.5 1.452-1.968.052-16.653 13.847-19.947 18.738-1.91 2.837-3.474 5.557-3.474 6.044 0 3.045-7.337 5.739-10.577 3.883-3.475-1.99-12.216-12.347-14.914-17.671-2.577-5.087-5.12-6.399-7.3-3.768-.57.688-1.355 6.447-1.746 12.798-.642 10.439-.516 11.927 1.307 15.5 2.4 4.703 4.697 6.859 8.659 8.131 4.093 1.314 5.431 3.711 3.356 6.012-3.672 4.073-6.671 15.53-6.756 25.809-.032 3.85-.689 8.809-1.459 11.02-.797 2.286-1.435 8.179-1.479 13.666-.076 9.532-.962 13.998-3.029 15.276-2.016 1.246-1.105 5.596 1.688 8.054 3.49 3.072 4.633 3.075 6.635.019 2.237-3.415 2.026-4.977-.885-6.535-1.375-.736-2.5-1.897-2.5-2.58 0-1.683 5.746-6.414 7.827-6.445.92-.013 4.922-4.176 8.893-9.25 3.971-5.074 8.558-10.688 10.194-12.475 3.248-3.55 6.819-4.51 5.58-1.5-1.813 4.402-1.75 5.25.389 5.25 1.283 0 2.117.637 2.117 1.617 0 1.139-.607 1.457-2.059 1.078-1.66-.434-2-.124-1.75 1.596.332 2.293 5.494 4.084 9.309 3.231 4.897-1.096 6.172-9.574 2.401-15.964-1.636-2.773-1.856-3.907-.969-4.977 1.225-1.475 5.75-3.042 7.807-2.703 2.527.417 5.136-1.986 7.663-7.057 2.135-4.285 2.598-6.615 2.598-13.076 0-4.987.366-7.637 1-7.245.55.34 1 1.941 1 3.559 0 1.948.507 2.941 1.5 2.941 1.133 0 1.5-1.222 1.5-5 0-4.5.4-5.4 4-9 7.213-7.213 10.682-4.421 8.348 6.716-1.887 9.003-3.565 11.663-10.397 16.481-3.475 2.451-6.274 5.242-6.614 6.597-.825 3.287 1.586 18.647 3.756 23.926l1.323 3.22-7.155 6.877c-5.359 5.151-8.637 7.417-13.061 9.03-7.284 2.656-8.2 2.673-8.2.153 0-1.1-.562-1.992-1.25-1.982-3.832.056-20.75 12.036-20.75 14.694 0 1.833 8.409 1.705 9.951-.152 1.421-1.713 12.937-6.113 18.429-7.043 4.013-.679 11.62-4.878 11.62-6.415 0-.479 1.163-1.634 2.585-2.565 2.433-1.595 2.696-1.592 4.5.04 2.545 2.303 2.415 4.223-.585 8.638-3.048 4.486-3.053 4.595-.25 5.807 1.237.535 3.017 1.522 3.955 2.192 1.412 1.009 2.125.825 4.142-1.07l2.437-2.29 1.617 2.308c1.47 2.099 1.819 2.18 3.858.889 6.074-3.845 8.424-4.545 14.583-4.339 4.505.15 7.547-.345 10.5-1.709 3.821-1.766 6.793-2.275 19.735-3.381 4.874-.417 9.738-2.489 11.868-5.056.716-.862 2.836-1.566 4.717-1.566 1.88 0 5.182-.9 7.338-2 2.156-1.1 5.081-2 6.5-2 2.997 0 10.024-3.36 11.196-5.353.442-.751 3.954-3.275 7.804-5.607l7-4.24 7.5.645c5.899.508 7.927.323 9.5-.868 1.142-.864 4.124-1.527 6.948-1.545 7.47-.048 20.444-4.363 25.024-8.321 2.342-2.025 3.583-3.813 3.141-4.529-.804-1.3-9.929-1.506-13.022-.293-1.049.412-3.524.387-5.5-.054a275.176 275.176 0 0 0-6.262-1.318c-2.545-.491-2.693-.858-3.148-7.766-.863-13.123-3.286-24.1-6.83-30.943-9.188-17.743-27.345-40.188-34.983-43.244-2.257-.903-5.565-2.757-7.352-4.119-3.164-2.414-23.113-9.508-26.38-9.382-.9.035-2.751.509-4.113 1.052m3.505 5.839c-.324.525-.305 2.086.042 3.47.418 1.662.088 3.06-.969 4.118-2.397 2.396-1.981 3.133 2.149 3.816 6.558 1.084 6.56 1.083 5.998-3.899-.692-6.139-5.18-10.805-7.22-7.505m-16.305 1.707c-5.461 2.691-8.228 6.8-8.192 12.166.026 3.859.484 5.003 2.63 6.567 2.55 1.859 2.619 1.859 3.718 0 .617-1.042 1.348-3.019 1.626-4.394.385-1.907 1.215-2.568 3.5-2.785 5.581-.532 7.257-2.029 7.319-6.541.031-2.262-.422-4.689-1.006-5.393-1.444-1.74-5.631-1.574-9.595.38M106 70.65c-4.487 1.472-12.206 5.867-13.039 7.423-1.488 2.781-1.196 7.927.45 7.927 1.654 0 6.167-5.096 7.091-8.006.805-2.535 5.456-4.994 9.448-4.994 3.247 0 4.096-1.384 1.468-2.393-1.785-.685-3.234-.674-5.418.043m45.986 3.969c-.007 2.685-.285 5.894-.616 7.131-.485 1.81-.193 2.25 1.494 2.25 1.464 0 2.295-.832 2.751-2.75.36-1.513 1.334-3.533 2.165-4.49 1.424-1.639 1.814-1.567 6.738 1.25 5.471 3.131 8.93 3.861 8.245 1.74-.624-1.929-13.033-8.757-17.12-9.42L152 69.738l-.014 4.881m-68.065 5.207c-1.331 1.037-4.221 2.212-6.421 2.613-4.364.796-10.884 5.13-9.962 6.623.336.543 1.695.365 3.269-.429 1.481-.749 5.763-2.369 9.515-3.602 6.654-2.187 8.927-4.182 6.982-6.127-.615-.615-1.833-.283-3.383.922m21.972-.12c-.823.987-2.729 3.725-4.236 6.084-1.506 2.36-3.845 4.711-5.198 5.226-2.977 1.131-3.164 3.063-.459 4.752 2.281 1.425 2.527 4.132.806 8.891-1.061 2.936-.955 3.553.965 5.597 1.788 1.904 2.273 4.001 2.833 12.27.755 11.163 2.882 16.827 7.026 18.715 2.137.974 3.219.806 6.709-1.043 2.289-1.212 5.148-2.202 6.355-2.201 3.054.004 7.036-3.891 7.781-7.611.491-2.448.079-3.763-1.925-6.145-1.403-1.666-2.56-3.865-2.572-4.885-.012-1.021-.86-3.702-1.885-5.957-1.024-2.256-2.191-6.939-2.594-10.407-1.244-10.723-5.287-17.083-6.087-9.578-.165 1.551-1.493 4.621-2.95 6.823-1.951 2.949-2.474 4.696-1.985 6.633.366 1.447 1.338 6.176 2.161 10.511.843 4.442 2.423 9.135 3.622 10.757 2.608 3.527 1.311 5.773-2.237 3.874-2.922-1.564-4.673-6.049-7.115-18.232-2.154-10.743-1.965-13.621 1.154-17.586 1.066-1.355 1.938-3.346 1.938-4.424 0-1.079.93-3.267 2.067-4.864 2.612-3.669 2.282-8.284-.622-8.7-1.131-.162-2.729.513-3.552 1.5m53.142 2.228c-1.422 2.658-1.419 2.664 2.003 4.082 2.964 1.227 6.039 4.984 4.081 4.984-.524 0-1.102-.429-1.286-.953-.183-.524-2.168-1.244-4.411-1.6-8.046-1.277-10.315 6.133-3.727 12.168 2.033 1.862 4.17 3.392 4.75 3.4.58.009.438.407-.316.884-.861.545-2.464.26-4.304-.765-2.919-1.627-2.946-1.617-5.976 2.116-1.674 2.063-3.656 3.75-4.406 3.75-2.152 0-6.095 4.851-9.402 11.568-5.16 10.481-3.312 15.511 3.5 9.53 2.668-2.342 4.149-2.963 5.977-2.504 2.023.508 2.785.007 4.554-2.992 1.169-1.981 2.644-3.617 3.277-3.635 1.617-.047 5.651-3.557 5.651-4.918 0-.621.957-2.424 2.126-4.005 1.823-2.466 2.026-3.668 1.43-8.444-.383-3.063-1.114-5.827-1.626-6.143-.511-.316-.915-1.561-.897-2.766l.034-2.191 1.85 2.218c1.953 2.339 5.466 15.854 4.519 17.385-.304.493-1.09.918-1.745.943-.655.026-1.963 1.038-2.906 2.25a530.487 530.487 0 0 1-5.25 6.549c-4.819 5.922-4.726 6.491 1.959 12.006 3.381 2.789.52 2.119-5.812-1.362-6.368-3.5-6.647-3.559-9.62-2.021-4.078 2.109-4.312 5.029-.963 11.97 2.146 4.445 2.331 5.562.921 5.562-.538 0-1.941-1.912-3.116-4.25s-2.829-5.037-3.675-6c-2.233-2.539-5.896-2.188-7.821.75-1.241 1.894-2.52 2.508-5.273 2.532-1.999.017-4.509.692-5.576 1.5-1.068.807-2.98 1.468-4.25 1.468-2.28 0-3.628 1.062-8.087 6.369-1.924 2.289-2.799 2.613-5.629 2.083-4.135-.776-7.788 1.007-12.73 6.216-4.172 4.396-5.936 11.641-3.705 15.214 1.042 1.668.965 2.638-.449 5.602-.94 1.971-1.709 4.39-1.709 5.376 0 2.795 4.101 5.883 8.5 6.4 2.2.259 5.467 1.081 7.259 1.828 2.856 1.189 3.659 1.144 6.5-.367 4.174-2.22 12.236-3.346 13.168-1.839.439.71-.221 1.118-1.809 1.118-1.375 0-2.778.45-3.118 1-.34.55.309 1 1.441 1 1.132 0 2.059.45 2.059 1s-.413 1-.918 1c-.505 0-1.63.273-2.5.607-1.058.406-1.582.047-1.582-1.083 0-.93-.562-1.503-1.25-1.274-.687.229-1.25 1.054-1.25 1.833 0 1.673 6.026 2.532 7.815 1.116 2.187-1.732 8.137-3.128 14.185-3.329 5.937-.197 10.504-2.039 10.496-4.235-.005-1.633-10.666-9.635-12.836-9.635-2.883 0-3.086-.909-.791-3.553l2.131-2.457 3 3.429c1.65 1.886 4.916 5.005 7.257 6.932 4.017 3.305 4.581 3.475 10 3.004 7.522-.654 12.715-2.915 14.249-6.205l1.236-2.65 1.032 2.25c1.359 2.964 3.867 2.844 7.685-.369 5.572-4.689 6.923-9.467 7.163-25.325.12-7.993-.016-8.568-2.553-10.75-3.561-3.063-5.955-2.909-11.657.75-3.705 2.378-5.099 4.043-6.276 7.5-1.606 4.711-1.492 4.884 3.114 4.713.688-.026 1.25.578 1.25 1.342 0 1-1.4 1.389-5 1.389-7.448 0-10.714 3.876-7.85 9.316 1.743 3.312 2.949 3.794 7.85 3.139l4.5-.602-3.189 2.824c-1.754 1.552-3.329 3.634-3.5 4.626-.451 2.613-2.311 2.07-2.311-.675 0-1.398-1.299-3.422-3.25-5.067-1.787-1.506-3.25-3.374-3.25-4.15 0-2.733-3.738-5.289-7.688-5.255-2.097.017-5.079-.461-6.627-1.062-4.455-1.731-7.747-1.308-14.185 1.825-8.507 4.141-13.122 6.081-14.46 6.081-2.134 0-.101-1.759 5.201-4.499 7.043-3.639 9.759-6.293 9.759-9.536 0-4.909 1.26-11.965 2.136-11.965.475 0 .864 2.645.864 5.878 0 3.918.484 6.279 1.452 7.082 2.672 2.218 4.976.751 6.626-4.219 1.827-5.501 2.922-5.2 2.922.803 0 5.446 1.867 6.976 8.406 6.887 7.33-.099 10.809-2.306 14.037-8.904 1.509-3.084 4.447-6.952 6.588-8.672 2.21-1.776 4.137-4.342 4.499-5.991l.633-2.884 1.919 2.26L172 140.5l1.75-2.131c.963-1.173 2.26-2.973 2.883-4 1.628-2.686 2.662-1.111 1.273 1.938-.643 1.411-.899 3.269-.569 4.129 1.83 4.77 10.723-3.069 12.996-11.455l1.485-5.481.091 4.191c.106 4.873.13 4.896 6.275 5.815l4.684.701-.43-9.353c-.375-8.148-.875-10.259-3.875-16.374-5.458-11.123-9.718-13.824-12.428-7.878-1.526 3.35-1.432 5.614.476 11.449 1.037 3.17 1.337 5.91.842 7.687l-.77 2.762-.657-3.5c-.36-1.925-1.189-4.483-1.841-5.684-1.877-3.46-1.49-13.066.651-16.162 3.198-4.623 3.28-5.022 1.257-6.104-3.207-1.717-7.093.311-7.093 3.703 0 1.541-.744 3.865-1.654 5.163-1.307 1.866-1.412 2.749-.5 4.209 1.498 2.399 1.455 2.875-.263 2.875-.779 0-2.339 1.237-3.468 2.75l-2.052 2.75-.031-2.805c-.018-1.543.808-4.693 1.835-7 3.317-7.45 3.448-9.47.792-12.127l-2.39-2.39 2.615-1.927c2.568-1.892 5.116-1.976 5.116-.168 0 .505-.873.917-1.941.917s-2.221.453-2.563 1.007c-1.144 1.85 2.285 2.158 5.503.493 3.061-1.582 3.115-1.717 1.436-3.572-1.336-1.476-3.086-1.928-7.468-1.928-3.147 0-7.338-.675-9.313-1.5-4.494-1.878-4.377-1.887-5.619.434M135 85.706c-4.666 1.706-11 11.667-11 17.301 0 1.69.845 4.742 1.878 6.783 1.033 2.04 2.192 5.167 2.577 6.949.931 4.312 2.473 5.068 4.707 2.309 2.455-3.031 2.374-8.253-.162-10.548-1.1-.995-2-2.389-2-3.096 0-2.382 2.132-2.629 4.388-.509 2.873 2.699 5.142 2.66 8.584-.145 1.518-1.237 3.516-2.7 4.439-3.25 1.437-.856 1.511-1.479.512-4.32l-1.167-3.32-2.859 2.739c-2.527 2.421-3.158 2.603-5.425 1.57-1.411-.643-3.39-1.169-4.397-1.169-2.841 0-4.435-2.457-2.588-3.989 1.213-1.007 2.129-.998 4.646.044 2.734 1.133 3.292 1.084 4.361-.378.675-.922 2.366-1.677 3.759-1.677 3.081 0 4.219-2.385 2.133-4.471-1.506-1.506-9.132-2.012-12.386-.823M81.2 90.2c-1.848 1.848-1.441 4.713 1.342 9.462C86.5 106.415 88 105.111 88 94.918 88 89.103 87.951 89 85.2 89c-1.54 0-3.34.54-4 1.2m-11.512 4.592C68.76 95.818 68 97.1 68 97.642c0 1.896 5.851 6.629 7.44 6.019 1.733-.664 2.052-2.751.645-4.211-.504-.523-1.066-2.07-1.25-3.44-.417-3.097-2.912-3.688-5.147-1.218M13.536 105.25c.038 11.985.676 14.199 5.093 17.672 4.11 3.234 6.495 2.669 9.621-2.279 1.513-2.394 2.75-4.709 2.75-5.144 0-.435-1.988-2.917-4.417-5.514-2.43-2.598-5.848-7.257-7.596-10.354C17.239 96.534 15.29 94 14.655 94c-.807 0-1.144 3.393-1.119 11.25m46.131-10.583C58.29 96.043 59.073 98 61 98c1.333 0 2-.667 2-2 0-1.927-1.957-2.71-3.333-1.333m-8.301 7.705c-1.681 1.92-2.656 7.331-1.454 8.073.566.35 2.713-.907 4.772-2.794 3.24-2.969 3.564-3.648 2.407-5.041-1.595-1.922-4.158-2.029-5.725-.238m8.247 6.244-4.888 5.554 2.083 2.083c1.711 1.71 2.353 1.858 3.594.829 2.01-1.669 3.598-.546 3.598 2.543 0 2.861 1.636 6.375 2.968 6.375 1.401 0 2.309-3.959 1.214-5.298-.644-.788-.632-3.219.036-7.061.959-5.516.88-5.997-1.35-8.219l-2.368-2.359-4.887 5.553M52.5 105c.34.55 1.041 1 1.559 1s.941-.45.941-1-.702-1-1.559-1-1.281.45-.941 1m23.361 4.935c-2.26 1.853-2.285 2.013-.592 3.734 2.273 2.31 5.094.774 5.547-3.02.385-3.222-1.555-3.501-4.955-.714m71.248 7.251c-.93 2.463-.501 4.174.839 3.346 1.276-.788 1.962-4.47.95-5.095-.503-.311-1.308.476-1.789 1.749M37 117.5c0 .825.675 1.5 1.5 1.5s1.5-.675 1.5-1.5-.675-1.5-1.5-1.5-1.5.675-1.5 1.5m4.345 1.043c-.326.849-.331 1.804-.012 2.124 1.009 1.009 3.667-.539 3.667-2.136 0-1.996-2.888-1.986-3.655.012m137.357 2.904c-.304 1.874-.286 4.429.041 5.677.561 2.145.635 2.163 1.355.322 1.061-2.712 1.08-8.218.03-8.867-.48-.297-1.122.994-1.426 2.868m18.097-.447c-.322 1.925-.19 3.92.292 4.433 1.433 1.527 1.741.31.995-3.933l-.703-4-.584 3.5m7.546-2.311c-1.23.441-.259 5.78 1.808 9.942.582 1.173.758 3.5.39 5.172-.394 1.797-.029 5.189.895 8.3 2.189 7.372 1.953 11.983-.938 18.303-2.977 6.509-2.987 6.594-.741 6.594 3.042 0 4.594-4.052 5.048-13.182.477-9.61-1.1-25.278-3.126-31.049-1.517-4.32-1.778-4.64-3.336-4.08M46.5 120c-1.081 1.749.522 3.227 2.089 1.926.776-.644 1.411-1.566 1.411-2.048 0-1.206-2.738-1.11-3.5.122m144.579.583c.048 1.165.285 1.402.604.605.289-.722.253-1.585-.079-1.917-.332-.332-.568.258-.525 1.312m-159.496 1.06c-.346.904-.414 1.859-.15 2.124.93.93 3.567-.723 3.567-2.236 0-2.047-2.621-1.961-3.417.112m5.526 1.726c-1.447 1.743-.102 2.863 1.93 1.607 1.038-.641 1.139-1.198.36-1.977-.778-.778-1.423-.674-2.29.37m15.337-.282c-.873 1.412 1.055 3.34 2.467 2.467.598-.37 1.087-1.32 1.087-2.113 0-1.684-2.574-1.94-3.554-.354m-11.481 2.455c-1.01 1.217-1.022 1.798-.055 2.75.959.946 1.529.796 2.625-.689 2.309-3.128-.089-5.05-2.57-2.061m5.481 1.545c-.873 1.412 1.055 3.34 2.467 2.467.598-.37 1.087-1.32 1.087-2.113 0-1.684-2.574-1.94-3.554-.354M27.5 128c-1.081 1.749.522 3.227 2.089 1.926.776-.644 1.411-1.566 1.411-2.048 0-1.206-2.738-1.11-3.5.122m132.18-.25c-.241.412 1.082 1.742 2.941 2.954 2.612 1.704 3.379 1.874 3.379.75 0-.8-.627-1.454-1.393-1.454s-1.652-.675-1.969-1.5c-.61-1.592-2.227-2.001-2.958-.75M60 130.917c0 1.696-.337 3.03-.75 2.965-2.702-.427-3.289.177-2.182 2.245 1.127 2.105 1.172 2.095 4.275-1.008 2.506-2.506 2.923-3.474 2.075-4.818-1.864-2.955-3.418-2.675-3.418.616m-24.554-.83c-1.03 1.668 1.287 3.58 2.667 2.2C39.267 131.133 38.545 129 37 129c-.485 0-1.184.489-1.554 1.087m16.783 1.101c.618 1.854 2.771 2.161 2.771.395 0-.87-.712-1.583-1.583-1.583s-1.406.534-1.188 1.188m-11.553 2.214c-.628 1.636.11 2.598 1.991 2.598.733 0 1.333-.9 1.333-2 0-2.274-2.508-2.725-3.324-.598m5.783.665c-.92 1.489.147 2.298 2.061 1.564.884-.339 1.327-1.07.984-1.624-.81-1.311-2.215-1.284-3.045.06m47.685 2.847c-.634 2.117-1.826 4.407-2.649 5.09-3.029 2.514-1.513 5.979 3.255 7.441 1.921.589 2.25.321 2.25-1.831 0-1.386.513-3.646 1.14-5.022.871-1.912.84-3.225-.13-5.568-1.832-4.422-2.568-4.443-3.866-.11m-67.013-1.572c-1.224 1.474-.54 2.658 1.536 2.658.733 0 1.333-.9 1.333-2 0-2.307-1.26-2.596-2.869-.658M32 136.5c-.995 1.199-.987 1.811.042 3.05 1.133 1.365 1.462 1.375 2.759.078 1.483-1.483 1.043-4.628-.647-4.628-.5 0-1.469.675-2.154 1.5m19.708.125c-.78.78.295 3.375 1.399 3.375 1.143 0 1.168-2.712.032-3.414-.473-.292-1.117-.275-1.431.039m138.28 1.888c-2.511 2.673-2.219 3.373 2.194 5.245 2.261.958 3.085.82 5.25-.883 3.416-2.687 3.239-4.445-.581-5.777-4.192-1.462-4.153-1.47-6.863 1.415m-127.321-.846c-1.218 1.218-.689 3.333.833 3.333.833 0 1.5-.889 1.5-2 0-1.992-1.066-2.601-2.333-1.333m87.001 1.083c-.643 1.071-.099 8.744.714 10.059 1.139 1.843 3.456.204 4.145-2.933.913-4.154-3.106-10.047-4.859-7.126m-107.001.917C41.399 140.934 42.008 142 44 142c1.111 0 2-.667 2-1.5 0-1.522-2.115-2.051-3.333-.833m13.971 2.833c-.35.914-.001 1.5.893 1.5.808 0 1.469-.675 1.469-1.5s-.402-1.5-.893-1.5-1.152.675-1.469 1.5m-34.944.139c-.799.799.104 2.361 1.365 2.361.518 0 .941-.675.941-1.5 0-1.546-1.18-1.987-2.306-.861m3.982.763c-.625 1.629.215 2.784 1.463 2.012 1.136-.702 1.111-3.414-.032-3.414-.491 0-1.135.631-1.431 1.402m21.514.348c.186.963 1 1.75 1.81 1.75s1.624-.787 1.81-1.75c.236-1.228-.304-1.75-1.81-1.75s-2.046.522-1.81 1.75m-17.566 1.788c-.77 2.007 2.29 3.208 3.462 1.358 1.351-2.135 1.094-2.896-.979-2.896-1.041 0-2.159.692-2.483 1.538m170.767-.746c-2.194 1.423-3.391 5.206-3.391 10.716 0 4.828.251 5.59 1.747 5.302 2.669-.514 5.333-6.673 4.837-11.181-.472-4.292-1.54-5.909-3.193-4.837M61 145.878c0 .482.635 1.404 1.411 2.048 1.567 1.301 3.17-.177 2.089-1.926-.762-1.232-3.5-1.328-3.5-.122m-19.333.789c-1.151 1.15-.729 2.333.833 2.333.825 0 1.5-.675 1.5-1.5 0-1.562-1.183-1.984-2.333-.833m11.656.934c-.708 1.844 1.711 3.765 3.051 2.425 1.092-1.092.09-4.026-1.374-4.026-.585 0-1.339.72-1.677 1.601m-32.656 1.066c-1.218 1.218-.689 3.333.833 3.333.833 0 1.5-.889 1.5-2 0-1.992-1.066-2.601-2.333-1.333m62.866.28c-.88 1.423.242 3.053 2.099 3.053.876 0 1.378-.703 1.191-1.667-.389-2.009-2.386-2.849-3.29-1.386m-37.94 1.671c-.362.944-.224 2.151.307 2.682 1.445 1.445 4.297-.039 3.912-2.035-.45-2.341-3.396-2.792-4.219-.647m139.385-.091c-1.357 1.634-2.155 19.246-.907 20.017 1.652 1.021 3.129-2.533 2.19-5.273-1.266-3.699-.393-10.283 1.458-10.994 2.084-.799 3.248 1.509 3.266 6.473.008 2.338.413 4.25.899 4.25 1.225 0 1.149-9.893-.102-13.25-1.161-3.115-4.705-3.752-6.804-1.223m-159.311.14c-1.218 1.218-.689 3.333.833 3.333.833 0 1.5-.889 1.5-2 0-1.992-1.066-2.601-2.333-1.333m33.021-.021c-1.541 1.54-.648 4.354 1.382 4.354 1.555 0 1.99-.539 1.75-2.172-.332-2.255-1.94-3.375-3.132-2.182M31 153.441c0 2.828 1.044 3.768 2.905 2.618 1.67-1.032.498-5.059-1.472-5.059-.853 0-1.433.989-1.433 2.441m142.557-.218c-.856 1.222-1.557 2.709-1.557 3.305 0 .596-1.125 2.608-2.5 4.472-2.546 3.451-3.363 8-1.435 8 1.882 0 6.401-6.257 7.541-10.441.608-2.232 1.444-4.846 1.857-5.809 1.125-2.621-2.005-2.243-3.906.473m-134.601 2.33c-.903 1.089-.961 1.842-.201 2.602 1.282 1.282 3.245.28 3.245-1.655 0-2.137-1.635-2.645-3.044-.947m40.732-.907c-1.416 1.415-.615 3.354 1.385 3.354 1.398 0 1.968-.543 1.75-1.667-.357-1.841-2.064-2.759-3.135-1.687m-28.215 1.398c-.798 1.291 1.422 4.139 2.64 3.386.488-.301.887-1.421.887-2.489 0-2.05-2.432-2.668-3.527-.897m-30.307 2.095c.184 1.298.784 2.248 1.334 2.111 1.476-.369 1.216-3.511-.334-4.028-.915-.305-1.229.298-1 1.917m23.44-.602c-1.843 1.843-1.999 3.331-.57 5.463.857 1.28 1.295 1.154 2.984-.861 2.35-2.802 2.433-3.518.586-5.051-1.076-.893-1.76-.791-3 .449m-17.368.625c-1.362 1.362-.479 3.838 1.369 3.838 1.498 0 1.943-3.542.553-4.401-.462-.286-1.327-.032-1.922.563m74.333.723c-.729 1.179 1.379 7.115 2.527 7.115 1.033 0 1.15-2.472.272-5.75-.622-2.321-1.841-2.915-2.799-1.365m-68.56 1.602c-1.496 1.803-.642 4.513 1.422 4.513 2.15 0 3.774-3.393 2.32-4.847-1.521-1.521-2.258-1.455-3.742.334m-14.538 2.557c-.937 1.516 1.603 4.28 2.817 3.066 1.122-1.122.249-4.11-1.2-4.11-.534 0-1.262.47-1.617 1.044m20.777.664c-1.788.656-1.549 4.292.281 4.292 1.811 0 3.118-2.783 1.852-3.942-.486-.444-1.445-.602-2.133-.35m-15.514 1.89c-.802.801.247 3.402 1.371 3.402.491 0 .893-.9.893-2 0-1.949-1.061-2.606-2.264-1.402m29.6.969c-.791 2.062 1.282 4.215 2.697 2.8 1.145-1.145.281-4.367-1.171-4.367-.509 0-1.195.705-1.526 1.567m-25.78 1.343c-.689 1.114.362 4.09 1.444 4.09 1.082 0 2.133-2.976 1.444-4.09-.309-.501-.959-.91-1.444-.91s-1.135.409-1.444.91m-8.396 2.33c-1.725 1.725-1.41 2.76.84 2.76 1.1 0 2-.648 2-1.441 0-2.019-1.461-2.698-2.84-1.319m13.832.775c-.856 1.599-.746 2.142.532 2.633 2.057.789 3.923-1.041 3.14-3.081-.826-2.153-2.381-1.964-3.672.448m60.008.878c0 .491.73 1.173 1.622 1.515 1.202.462 1.467 1.396 1.025 3.607-.714 3.568.519 3.819 3.603.735l2.25-2.25-2.252-.32c-1.239-.176-2.717-1.188-3.285-2.25-1.057-1.975-2.963-2.642-2.963-1.037m76.5.107c.34.55 1.465 1 2.5 1s2.16-.45 2.5-1c.362-.585-.676-1-2.5-1-1.824 0-2.862.415-2.5 1m-146.3 2.2c-1.763 1.763-1.467 2.8.8 2.8 1.333 0 2-.667 2-2 0-2.267-1.037-2.563-2.8-.8m3.365 3.129c-1.507 1.102-1.619 1.701-.656 3.5 1.433 2.679 2.286 2.718 4.557.208 3.256-3.597.078-6.617-3.901-3.708M17 178.917c0 1.228.646 2.083 1.573 2.083.932 0 1.442-.68 1.25-1.667-.486-2.509-2.823-2.853-2.823-.416m5.115 2.994c-2.015 1.271-.591 6.327 1.659 5.894 2.171-.418 2.654-2.848 1.005-5.056-.85-1.137-1.744-1.418-2.664-.838m93.23.632c-1 2.607.592 2.964 2.905.651l2.194-2.194h-2.253c-1.24 0-2.52.694-2.846 1.543m-99.796 4.19c-.635 1.655 1.236 3.518 2.653 2.642 1.298-.802.911-3.118-.619-3.705-.78-.299-1.695.179-2.034 1.063M0 232.011c0 1.381 256.206.871 256.667-.511.221-.664-42.83-.914-128.167-.742-84.508.169-128.5.598-128.5 1.253" fill="#1976D2" fill-rule="evenodd"/><path fill-opacity=".282" d="M36.597 25.75c-.927 4.538-2.846 16.609-2.976 18.719-.068 1.114.614 2.118 1.572 2.312 1.764.358 2.419-1.763 3.163-10.232.191-2.172.797-4.1 1.347-4.283.549-.183 2.414 2.832 4.144 6.7C46.471 44.834 47.388 46 49.378 46c2.238 0 2.489-.606 4.049-9.75.914-5.363 1.832-10.564 2.04-11.559.285-1.37-.15-1.735-1.795-1.5-1.902.271-2.282 1.21-3.061 7.559-.488 3.987-1.215 7.25-1.615 7.25-.399 0-2.197-3.375-3.996-7.5-2.7-6.192-3.669-7.5-5.556-7.5-1.69 0-2.431.716-2.847 2.75m103.635-1.522c-6.066 2.925-8.988 15.457-4.621 19.826 2.635 2.637 10.289 2.897 13.985.475 6.165-4.039 8.388-13.737 4.331-18.894-1.73-2.2-2.844-2.624-6.75-2.567-2.572.037-5.698.559-6.945 1.16m1.05 3.724c-3.29 3.065-4.695 8.411-3.093 11.77 1.875 3.931 7.417 4.391 10.708.888 3.086-3.285 4.009-10.561 1.641-12.929-2.255-2.256-6.683-2.126-9.256.271m-79.005 3.021c-3.039 1.853-4.086 3.862-4.441 8.527-.314 4.11.237 5.288 3.01 6.436 3.411 1.413 7.369.589 9.735-2.026 1.644-1.817 1.636-1.908-.176-1.878-1.048.017-2.774.689-3.835 1.492-1.706 1.29-2.142 1.268-3.75-.187C59.372 40.217 60.545 39 67 39h6v-3.443c0-2.425-.658-3.904-2.223-5-2.915-2.042-4.604-1.96-8.5.416m17.208-.706c-.936 2.628-2.227 13.243-1.758 14.464.802 2.089 5.062 2.637 7.597.976 2.082-1.364 2.415-1.35 3.389.14 1.731 2.65 3.105.337 4.68-7.878.936-4.882 1.093-7.815.452-8.469-1.538-1.57-3.509 1.906-4.251 7.5-.69 5.206-3.154 7.767-6.308 6.556-1.284-.493-1.443-1.716-.906-6.964.537-5.242.378-6.471-.902-6.962-.854-.328-1.751-.041-1.993.637m21.018.062c-.954 2.991-2.644 15.863-2.147 16.36 1.443 1.443 3.427-.933 4.053-4.853.935-5.859 3.144-9.113 5.647-8.318 1.581.502 1.944.137 1.944-1.951 0-2.583-2.256-3.58-3.51-1.551-.346.559-1.16.684-1.809.278-1.955-1.222-3.782-1.206-4.178.035m17.885-.349c-4.788 1.934-8.088 9.929-5.623 13.62 2.651 3.97 9.574 3.789 13.721-.359 3.412-3.412 3.572-10.386.291-12.684-2.435-1.706-5.135-1.892-8.389-.577m44.63.009c-.819.506-1.437 2.548-1.467 4.843-.028 2.183-.389 3.762-.801 3.509-.412-.252-.756.58-.764 1.85-.007 1.27-.295 3.361-.639 4.647-.543 2.026-.307 2.293 1.763 2 1.697-.24 2.469-1.063 2.664-2.838.15-1.375.782-4.452 1.404-6.837.979-3.757 1.438-4.278 3.426-3.898 2.105.402 3.396-.836 3.396-3.258 0-.975-1.955-.791-3.794.357-.711.445-1.851.345-2.533-.221-.739-.613-1.812-.675-2.655-.154m12.115 2.761c-2.111 8.389-2.233 11.007-.588 12.652 1.996 1.996 4.388 2.034 7.131.112 1.876-1.314 2.187-1.314 2.691 0 1.113 2.901 3.526 1.586 4.153-2.264a355.5 355.5 0 0 1 1.471-8.217c.93-4.834.637-6.033-1.471-6.033-1.315 0-1.705 1.168-3.102 9.277-.686 3.981-3.404 6.326-6.124 5.282-1.289-.494-1.434-1.765-.861-7.577.58-5.886.449-6.982-.834-6.982-.924 0-1.893 1.473-2.466 3.75m21.4-2.5c-.971 3.006-2.684 15.933-2.177 16.439 1.443 1.443 3.427-.933 4.053-4.853.916-5.741 3.2-9.171 5.676-8.524 1.495.391 1.915-.027 1.915-1.906 0-2.479-2.308-3.336-3.554-1.319-.484.783-.976.783-1.759 0-1.462-1.462-3.656-1.376-4.154.163m16.467.461c-6.425 3.284-7.395 13.048-1.518 15.282 6.05 2.3 13.518-2.881 13.518-9.379 0-6.474-5.546-9.202-12-5.903M63.036 33.456C61.259 35.598 62.653 37 66.559 37c3.574 0 4.489-1.552 2.241-3.8-1.629-1.629-4.297-1.511-5.764.256m55.7-.206c-2.807 2.132-3.803 6.209-2.108 8.629 1.859 2.654 3.802 2.691 6.372.121 4.789-4.789.935-12.698-4.264-8.75m94.997.5c-3.684 4.088-2.579 10.25 1.838 10.25 2.377 0 5.429-3.823 5.429-6.8 0-4.939-4.15-6.909-7.267-3.45m-72.167 29.357c.453.733.015.895-1.296.479-1.089-.346-2.985-.257-4.213.197-2.001.741-2.068.963-.645 2.144.873.725 1.588 1.797 1.588 2.383 0 .585-1.262-.145-2.805-1.623-1.542-1.478-3.23-2.67-3.75-2.649-.52.02.723 1.483 2.762 3.25 3.47 3.007 3.668 3.486 3.112 7.508-.477 3.448-1.177 4.596-3.547 5.822-1.624.84-3.532 1.304-4.24 1.032-1.578-.605-3.525 1.178-2.972 2.722.223.62-.45 2.237-1.494 3.592-1.775 2.305-2.081 2.372-4.732 1.046-1.559-.781-3.754-2.219-4.879-3.196-1.988-1.728-2.096-1.691-3.86 1.294-2.263 3.832-.761 6.257 2.21 3.568 1.019-.922 2.133-1.676 2.477-1.676 1.438 0 4.72 9.607 4.74 13.877.012 2.543.912 6.585 2 8.982 1.088 2.398 1.978 5.28 1.978 6.406 0 1.125 1.125 3.521 2.5 5.324 3.014 3.951 3.146 6.839.511 11.161-1.469 2.409-2.699 3.25-4.754 3.25-1.525 0-4.967 1.168-7.649 2.596l-4.875 2.595-2.617-1.95c-4.934-3.678-6.425-7.692-7.043-18.968-.479-8.724-.887-10.665-2.491-11.837-1.692-1.237-2.081-1.169-3.307.581-1.669 2.384-4.554 2.561-6.704.412-2.166-2.167-1.971-3.894.774-6.857l2.346-2.53 2.325 2.475c1.279 1.361 2.55 2.25 2.825 1.975.275-.275-.549-1.617-1.832-2.982l-2.331-2.482 2.616-2.424c2.039-1.89 2.295-2.548 1.161-2.983-1.86-.714-1.91-4.621-.059-4.621 1.645 0 6.924-5.784 9.074-9.943 1.801-3.481 5.519-5.022 6.886-2.854.732 1.16 1.43 1.242 3.279.385 2.449-1.134 3.081-3.027 1.365-4.088-.55-.34-1-1.111-1-1.714 0-.655.705-.507 1.75.368 1.588 1.327 2.26.959 7.25-3.974l5.5-5.437-4.5.671c-2.475.369-8.775 1.065-14 1.546-9.736.897-20.392 4.075-26.961 8.042a1266.57 1266.57 0 0 1-10.984 6.495c-11.399 6.674-21.986 16.255-26.513 23.995-4.161 7.115-5.846 8.515-10.226 8.496-2.132-.01-4.611-1.757-10.206-7.197-8.176-7.948-7.933-6.145.514 3.812l5.473 6.452-2.048 2.877c-1.127 1.582-2.049 3.359-2.049 3.949 0 .59-1.133 1.815-2.517 2.722-1.908 1.25-2.255 1.967-1.433 2.958.801.965.554 2.307-.942 5.123-4.327 8.143-5.18 11.02-5.783 19.521L16.701 162h2.6c1.43 0 2.959.563 3.399 1.25.44.688 1.25 1.284 1.8 1.325.55.041 2.49.657 4.311 1.369 2.233.873 3.129 1.771 2.75 2.757-.308.804-.561 1.876-.561 2.381 0 .505-.9.918-2 .918-1.111 0-2-.667-2-1.5s-.889-1.5-2-1.5c-1.1 0-2-.562-2-1.25 0-.754-1.243-1.213-3.13-1.157-4.518.133-5.78 3.119-5.665 13.407.052 4.675.276 7.759.498 6.853.36-1.468 4.178-3.305 5.052-2.431.188.188.036 1.561-.338 3.051-.532 2.121-1.159 2.618-2.886 2.288-1.891-.361-2.382.233-3.429 4.146-.671 2.512-1.946 5.368-2.832 6.347-1.496 1.653-1.406 1.994 1.247 4.763 3.498 3.652 5.172 3.76 6.688.431 1.031-2.261.851-2.84-1.58-5.095-2.476-2.296-2.61-2.752-1.371-4.698.755-1.185 3.256-3.043 5.559-4.129 4.382-2.066 5.409-3.401 2.437-3.165-1.203.096-1.848-.706-2.062-2.563-.18-1.562-1.091-2.95-2.157-3.288-2.629-.835-3.244-3.216-1.908-7.389.638-1.992 1.307-4.183 1.487-4.871.18-.687 1.29-1.25 2.467-1.25 1.82 0 2.04.399 1.469 2.675-.601 2.393-.5 2.531.967 1.314 1.387-1.151 1.779-1.139 2.548.075.5.79.915 1.822.924 2.293.008.471.702.593 1.543.271.856-.329 2.241.247 3.152 1.312 1.363 1.591 1.843 1.68 2.973.55 1.856-1.856 1.69-2.49-.653-2.49-2.74 0-2.733-4.538.009-6.005 1.72-.92 2.155-.693 3.017 1.573.835 2.197 1.26 2.439 2.491 1.418 1.906-1.582 1.899-2.986-.017-2.986-.825 0-1.507-.338-1.515-.75-.009-.412-.424-1.396-.924-2.186-.734-1.159-1.198-1.195-2.415-.185-1.243 1.031-1.7.889-2.611-.814-.757-1.415-.788-2.658-.098-3.947 1.644-3.072 3.815-3.249 5.986-.489 1.098 1.396 2.465 2.249 3.037 1.896.617-.381 1.04.399 1.04 1.916 0 2.579 1.352 3.417 2.505 1.551.342-.554-.116-1.746-1.019-2.649-.903-.903-1.432-2.44-1.177-3.417.317-1.211.023-1.607-.922-1.244-.763.293-2.081.266-2.93-.06-1.214-.466-1.313-1.022-.465-2.607 1.204-2.25 3.616-2.683 4.262-.765.232.688 1.732 1.25 3.334 1.25 2.289 0 2.983.499 3.242 2.332.182 1.283-.45 3.196-1.405 4.25-1.176 1.301-1.327 1.918-.469 1.918.906 0 1.08.997.61 3.5-.511 2.725-.327 3.5.83 3.5 2.661 0 2.997 2.263.621 4.187-2.791 2.261-2.348 2.825 2.757 3.509 3.229.434 4.325.114 6.082-1.772 2.377-2.551 2.751-6.498.983-10.377-1.486-3.261-2.703-3.289-2.084-.047.382 1.996.073 2.5-1.531 2.5-2.863 0-3.556-2.736-1.203-4.75 1.088-.932 1.979-2.762 1.979-4.066 0-1.53.709-2.557 2-2.894 2.407-.63 2.459-.974.45-2.983-2.238-2.238-1.403-4.807 1.564-4.807 2.055 0 2.479.477 2.447 2.75-.034 2.314.378 2.75 2.595 2.75 5.535 0 9.209-7.486 9.344-19.04.096-8.173-.024-8.66-2.65-10.835-3.135-2.596-3.797-1.383-.75 1.375 4.297 3.889 1.414 8.175-4.725 7.024-3.646-.684-3.7-.651-2.011 1.215 2.067 2.284 2.188 3.641.452 5.081-1.966 1.632-4.026-.189-3.332-2.945.329-1.306.339-1.812.023-1.125-.315.688-1.246 1.25-2.067 1.25-2.252 0-7.63-5.803-6.97-7.522.814-2.121 2.727-1.822 3.34.522.786 3.004 4.136 2.643 3.557-.383-.564-2.949 1.621-4.568 2.953-2.188.899 1.606 1.037 1.602 2.254-.063a3.908 3.908 0 0 0 .481-3.82c-.449-1.125-1.083-3.29-1.408-4.809-.505-2.359-.957-2.672-3.082-2.139-2.66.668-5.465-.954-5.465-3.16 0-1.641 7.822-10.826 9.58-11.249.712-.171 2.06.857 2.996 2.286 1.346 2.056 1.569 3.863 1.067 8.666-.618 5.918-.55 6.152 2.761 9.463 1.868 1.868 3.905 3.396 4.527 3.396 2.277 0 2.291-3.135.025-5.547-1.264-1.345-2.075-2.667-1.804-2.939.272-.271 1.763.832 3.315 2.452 2.716 2.834 2.76 3.039 1.177 5.454-1.842 2.811-2.161 5.58-.644 5.58.55 0 1-.837 1-1.86 0-1.024 1.079-3.452 2.399-5.396l2.399-3.534-2.676-.536c-1.698-.339-3.657-2.034-5.363-4.64-2.672-4.08-2.676-4.117-.723-6.07 1.08-1.08 3.063-1.964 4.407-1.964 1.991 0 2.364.416 2.021 2.25-.232 1.237-1.336 3.001-2.453 3.918-1.852 1.522-1.892 1.808-.45 3.25 2.422 2.422 6.001 1.927 8.437-1.168 1.228-1.56 1.927-1.993 1.615-1-.344 1.094-.027 1.75.847 1.75 3.251 0 4.716 3.079 3.995 8.395-1.384 10.207-3.987 15.085-10.761 20.164-3.407 2.555-6.476 5.161-6.82 5.793-.955 1.753 1.907 20.323 3.653 23.7 1.492 2.886 1.437 3.111-1.743 7.074-4.889 6.094-11.951 11.319-18.722 13.851-6.814 2.548-9.195 2.249-8.334-1.046.557-2.128.431-2.11-4.327.632C40.523 198.95 31 206.169 31 207.237c0 1.648 6.365.636 10.322-1.642 3.824-2.202 7.897-3.58 19.284-6.526 2.258-.585 6.152-2.864 8.653-5.066 5.071-4.464 6.668-4.846 9.086-2.174 2.231 2.465 2.102 3.539-.991 8.213-1.456 2.199-2.468 4.102-2.25 4.228 5.983 3.468 7.189 3.775 8.861 2.262 2.378-2.152 4.704-1.904 5.351.57.547 2.091.567 2.089 3.867-.362 4.949-3.676 9.223-4.771 15.898-4.074 5.149.538 5.919.397 5.919-1.083 0-.935.424-1.439.942-1.119 1.456.9 9.058-1.792 9.058-3.207 0-1.789-1.193-1.589-7.707 1.292-6.059 2.68-9.631 2.618-10.707-.185-.359-.935.095-2.46 1.045-3.509 1.422-1.571 1.449-1.855.178-1.855-.826 0-2.996.745-4.822 1.656-2.81 1.402-3.794 1.462-6.404.393-1.695-.695-5.081-1.607-7.523-2.027-2.949-.506-5.216-1.664-6.75-3.448-2.616-3.041-2.849-4.752-1.075-7.89.702-1.242 1.241-5.787 1.25-10.542l.015-8.358 4.964-4.498c5.892-5.34 8.649-6.543 13.081-5.712 3.023.567 3.524.278 5.994-3.454 2.061-3.114 3.552-4.232 6.328-4.748 1.998-.37 4.642-1.33 5.876-2.133 1.395-.908 3.236-1.21 4.871-.8 1.994.501 2.974.167 4.058-1.382 2.741-3.913 4.892-4.295 8.256-1.465l3.072 2.586v-3.284c0-2.202.886-4.209 2.687-6.089 1.478-1.543 2.176-2.805 1.551-2.805-.625 0-2.418 1.371-3.984 3.047-1.891 2.023-3.407 2.832-4.513 2.407-3.2-1.228-3.011-4.354.742-12.255 4.252-8.954 5.794-10.87 10.247-12.731 1.798-.751 3.27-1.754 3.27-2.228 0-.475.922-1.852 2.048-3.061 1.605-1.723 2.456-1.98 3.934-1.189 3.378 1.808 3.471 1.073.283-2.24-1.72-1.787-3.408-4.394-3.752-5.793-.84-3.413 2.691-7.957 6.182-7.957 2.116 0 2.345-.247 1.345-1.452-1.607-1.936-.366-5.548 1.905-5.548.996 0 3.498.705 5.56 1.566 2.508 1.049 5.041 1.349 7.655.907 4.177-.706 8.84 1.346 8.84 3.89 0 1.311-4.01 3.632-6.297 3.643-.78.004-1.231 1.93-1.283 5.481-.065 4.448.169 5.269 1.25 4.372.731-.607 1.33-2.367 1.33-3.91 0-4.666 3.836-7.1 8.418-5.342 2.036.781 2.021 3.25-.033 5.52-1.527 1.687-1.423 1.753 1.906 1.213 3.286-.533 3.745-.262 6.865 4.049 1.839 2.541 4.469 7.316 5.844 10.611 1.375 3.295 2.725 5.992 3 5.993.275.001.5-2.14.5-4.758 0-4.007-.804-6.023-5.08-12.747-5.697-8.959-19.375-24.038-22.728-25.056-1.205-.366-4.676-2.158-7.712-3.982-3.036-1.823-8.724-4.203-12.64-5.288-3.915-1.086-8.039-2.466-9.164-3.068-2.698-1.444-6.505-1.435-5.61.013m-.465 4.271c-.778.937-.842 2.174-.199 3.863.71 1.87.558 2.87-.616 4.044-2.846 2.846-.861 4.861 4.454 4.52l4.76-.305-.294-4.483c-.436-6.642-5.203-11.135-8.105-7.639M104 70.326c-4.049 2.128-10.792 6.528-11.325 7.391-.271.439-.809 2.482-1.196 4.541-.656 3.498-.541 3.742 1.755 3.742 2.716 0 4.694-1.859 7.162-6.733 1.959-3.868 6.645-6.546 9.986-5.707 3.132.786 4.55-1.405 2.08-3.212-2.325-1.7-5.255-1.707-8.462-.022m47.797-.686c-.252.473-.421 4.01-.377 7.86.06 5.273.423 7 1.471 7 1.426 0 2.089-.958 3.981-5.75 1.342-3.402 3-3.455 7.723-.25 3.895 2.643 9.889 3.461 9.159 1.25-.226-.687-1.294-1.7-2.373-2.25-1.078-.55-4.267-2.484-7.085-4.299-5.146-3.313-11.646-5.165-12.499-3.561m-67.732 9.782c-.649.782-2.85 1.704-4.892 2.049C71.611 82.748 62.849 90 68.868 90c1.108 0 2.261-.4 2.564-.889.302-.489 1.697-1.177 3.099-1.529 1.403-.353 5.007-1.56 8.01-2.683C87.093 83.196 88 82.453 88 80.428c0-2.702-2.085-3.235-3.935-1.006m29.373 1.679c-.375.605.274 2.055 1.441 3.222L117 86.444v-3.222c0-3.234-2.101-4.486-3.562-2.121m20.385 4.677c-3.305 2.18-5.901 5.448-8.686 10.932-2.626 5.174-2.67 7.322-.248 12.08 1.038 2.04 2.46 5.622 3.158 7.96 1.371 4.59 2.744 5.247 5.22 2.5 3.055-3.39 3.171-6.94.337-10.309-2.991-3.555-3.191-4.502-1.119-5.297.863-.331 1.909.223 2.499 1.326 1.864 3.482 4.766 3.444 10.102-.135 4.487-3.009 4.92-3.625 4.425-6.304-.654-3.54-2.523-5.683-3.241-3.716-.264.723-1.585 1.735-2.937 2.248-3.054 1.162-11.333-.737-11.333-2.598 0-1.831 2.105-2.339 4.759-1.149 1.567.703 2.944.669 4.5-.11 1.232-.618 3.366-1.254 4.741-1.414 1.913-.224 2.5-.872 2.5-2.762 0-4.698-9.344-6.768-14.677-3.252M176 86c0 .55.45 1 1 1s1-.45 1-1-.45-1-1-1-1 .45-1 1M13.063 89.961c-2.172 1.342-3.698 20.699-2.086 26.458 1.41 5.036 5.012 9.581 7.592 9.581 1.227 0 .714-1.051-1.953-4.003L13 117.994V105.38c0-12.121.078-12.593 2-12.09 1.233.322 2 .03 2-.761 0-1.975-2.382-3.529-3.937-2.568m66.828 1.378c-.949 2.083-.682 3.238 1.745 7.559 1.575 2.805 3.411 5.1 4.079 5.101 2.104.002 3.281-3.646 2.957-9.169l-.312-5.33-3.674-.31c-3.086-.26-3.854.084-4.795 2.149m-8.576 1.722c-1.201.454-2.704 1.797-3.339 2.984-.991 1.851-.754 2.577 1.664 5.101 1.905 1.988 3.611 2.847 5.262 2.648 3.012-.362 3.69-2.059 1.643-4.106-.85-.85-1.545-2.676-1.545-4.058 0-3.065-.835-3.647-3.685-2.569m-11.788 1.555c-2.003 2.003-1.491 3.884 1.056 3.884 1.348 0 2.011-.817 2.233-2.75.357-3.1-.893-3.531-3.289-1.134m47.981.224c-.283.737-.261 1.75.048 2.25.309.501-.091.91-.89.91-2.71 0-3.56 6.798-1.735 13.884.513 1.989 1.439 6.176 2.058 9.305 1.177 5.94 4.143 10.811 6.584 10.811 1.902 0 1.8-1.505-.323-4.725-.963-1.459-2.334-5.831-3.048-9.714-2.613-14.212-2.613-14.155.199-17.842 1.429-1.874 2.599-4.04 2.599-4.813 0-1.813-4.8-1.87-5.492-.066m-89.87 1.66c.317.825.753 1.5.969 1.5.216 0 .393-.675.393-1.5s-.436-1.5-.969-1.5c-.532 0-.709.675-.393 1.5M160 95.55c0 1.095 3.158 6.625 3.556 6.227.629-.628-1.89-6.777-2.775-6.777-.43 0-.781.247-.781.55m-65 5.391c0 2.515 1.614 3.507 2.395 1.471.958-2.496.718-3.412-.895-3.412-.825 0-1.5.873-1.5 1.941m-44.25 1.529c-1.768 2.431-2.391 8.016-.99 8.881.417.259 2.774-1.249 5.238-3.349 4.442-3.788 4.463-3.835 2.585-5.91-2.466-2.725-4.665-2.603-6.833.378m121.857 2.112c-.334.87-.607 2.32-.607 3.222 0 1.369.35 1.29 2.121-.481 1.167-1.167 1.816-2.617 1.441-3.222-.969-1.569-2.248-1.361-2.955.481m-83.357 1.136c-1.72.617-1.571 3.771.25 5.282 1.197.993 1.803.993 3 0 .825-.685 1.5-1.849 1.5-2.587 0-1.615-3.005-3.32-4.75-2.695m93.75 2.723c0 .857.45 1.559 1 1.559s1-.423 1-.941-.45-1.219-1-1.559c-.55-.34-1 .084-1 .941m-20 1.645c0 1.383-.515 3.029-1.144 3.658-.859.859-.588.999 1.085.561 2.956-.773 3.721-3.072 1.696-5.097-1.516-1.515-1.637-1.451-1.637.878m42.405 2.3c-.977 2.547 1.207 6.614 3.552 6.614 1.797 0 1.882-.279.837-2.75-.64-1.513-1.739-3.392-2.442-4.178-1.099-1.226-1.372-1.182-1.947.314M37.25 115.718c-.687.247-1.25.979-1.25 1.628 0 .649-1.013 1.624-2.25 2.167-2.515 1.103-3.729 5.487-1.52 5.487.754 0 1.91-.54 2.57-1.2.933-.933 1.2-.822 1.2.5 0 1.033.784 1.7 2 1.7 1.333 0 2 .667 2 2 0 2.333 2.223 2.641 3.96.548 1.636-1.971.864-5.115-1.171-4.771-2.647.446-3.002-1.507-.392-2.162 2.488-.624 4.043-3.094 3.005-4.773-.332-.538-1.266-.724-2.076-.414-.809.311-2.226.177-3.148-.296-.923-.474-2.24-.66-2.928-.414m10 2.99c-1.788.656-1.549 4.292.281 4.292 1.811 0 3.118-2.783 1.852-3.942-.486-.444-1.445-.602-2.133-.35M179.232 122c0 1.925.206 2.713.457 1.75.252-.963.252-2.537 0-3.5-.251-.963-.457-.175-.457 1.75M36 121c0 .55.648 1 1.441 1s1.719-.45 2.059-1c.34-.55-.309-1-1.441-1-1.132 0-2.059.45-2.059 1m118.691.689c-1.545.812-3.305 2.565-3.911 3.894-.605 1.329-1.479 2.417-1.941 2.417-1.703 0-.765 2.003 1.692 3.612 2.885 1.891 4.393 1.206 2.464-1.118-1.085-1.308-.78-2.266 1.919-6.024 1.766-2.459 3.07-4.422 2.898-4.364-.172.058-1.576.771-3.121 1.583m54.533 4.73c1.444 4.599 1.954 9.493 2.093 20.081.191 14.609-.644 18.466-4.519 20.872-2.837 1.762-3.347-.226-1.33-5.177 1.323-3.247 1.872-6.854 1.782-11.695-.221-11.853-.844-20.035-1.624-21.295-1.36-2.202-2.423-1.246-2.273 2.045.142 3.147.01 3.26-4.205 3.562-3.055.22-4.92-.201-6.256-1.41-1.047-.948-2.191-1.437-2.541-1.087-1.005 1.006 1.703 3.685 3.724 3.685 2.319 0 6.925 2.068 6.925 3.109 0 1.349-4.66 5.891-6.044 5.891-2.573 0-7.956-2.421-7.956-3.578 0-.648.675-1.737 1.5-2.422 1.443-1.198 2.099-4 .935-4-.31 0-1.733 1.389-3.161 3.086-4.334 5.151-10.274 6.125-10.274 1.685 0-1.671-.255-1.805-1.487-.782-.853.708-2.559.965-4 .604-1.81-.455-2.513-.229-2.513.805 0 .789-1.238 2.387-2.75 3.55l-2.75 2.116 4-1.656c6.98-2.89 7.924-2.83 11.479.725l3.305 3.305-.634 11.795c-.725 13.484-1.875 17.001-7.036 21.533-4.044 3.551-7.052 4.14-8.037 1.575-.555-1.447-.983-1.335-3.357.878-1.496 1.395-3.671 3.025-4.834 3.621-2.419 1.241-14.549 1.795-16.253.742-1.41-.871-1.495.656-.113 2.038.694.694.214 1.452-1.5 2.369-1.386.742-2.52 2.003-2.52 2.802 0 1.179-.284 1.218-1.5.209-.865-.718-1.5-.815-1.5-.229 0 3.263 9.018 1.767 13.849-2.297 1.969-1.657 4.162-2.474 6.641-2.474 2.036 0 4.896-.62 6.356-1.377 1.46-.758 4.896-1.909 7.636-2.558 2.74-.65 6.497-2.393 8.35-3.873 1.852-1.481 6.36-4.592 10.018-6.914 6.979-4.431 10.439-5.119 16.002-3.18 2.661.928 3.702.773 6.706-1 2.417-1.426 5.27-2.098 8.903-2.098 8.948 0 26.511-7.077 26.532-10.691.012-2.1-1.714-2.369-8.678-1.353-5.006.73-8.408.659-12.815-.268l-6-1.262-.69-7.963c-1.85-21.335-3.284-26.938-7.078-27.663l-2.417-.462 1.909 6.081m-156.536-4.773c-.379.378-.688 1.77-.688 3.094 0 1.754.475 2.315 1.75 2.07 1.088-.21 1.75-1.247 1.75-2.74 0-2.406-1.52-3.716-2.812-2.424M203.158 125c0 1.375.227 1.938.504 1.25.278-.687.278-1.812 0-2.5-.277-.687-.504-.125-.504 1.25m-156.457.632c-.385.386-.701 1.558-.701 2.604 0 1.402.593 1.819 2.25 1.584 1.471-.209 2.25-1.008 2.25-2.306 0-1.984-2.472-3.208-3.799-1.882m-19.034 1.035c-.367.366-.667 1.524-.667 2.573 0 2.725 3.416 1.831 3.82-1 .307-2.157-1.612-3.115-3.153-1.573M35 130.893c0 3.264-2.446 4.812-4.677 2.96-1.114-.924-1.769-.836-3.01.405-1.848 1.848-1.099 4.742 1.227 4.742.882 0 2.31.707 3.174 1.571 1.407 1.407 1.732 1.412 3.092.051.837-.836 1.588-2.427 1.669-3.534.082-1.108.97-2.923 1.975-4.032 1.495-1.653 1.598-2.293.566-3.537C36.95 127.03 35 127.698 35 130.893m30.718-1.643c-.625 1.745 1.08 4.75 2.695 4.75.738 0 1.902-.675 2.587-1.5.993-1.197.993-1.803 0-3-1.511-1.821-4.665-1.97-5.282-.25m-25.051 2.417c-1.05 1.05-.779 4.146.429 4.892 1.556.962 4.297-2.093 3.572-3.981-.618-1.612-2.803-2.11-4.001-.911m5.52 3.083c.183.963 1.295 1.888 2.471 2.056 1.176.169 2.379 1.229 2.674 2.356.655 2.505 3.168 1.914 3.168-.745 0-1.227-.81-2.032-2.25-2.237-1.237-.175-2.25-.963-2.25-1.75 0-.786-.933-1.43-2.073-1.43-1.435 0-1.971.539-1.74 1.75m48.244 0c-.278.963-1.585 3.836-2.904 6.386l-2.399 4.636 2.25 2.114c1.238 1.163 3.27 2.114 4.516 2.114 1.98 0 2.185-.366 1.627-2.905-.366-1.666-.187-3.184.42-3.559 1.398-.863 1.347-4.809-.102-7.989-1.351-2.966-2.69-3.279-3.408-.797m-51.764 3.917c-.367.366-.667 1.524-.667 2.573 0 2.725 3.416 1.831 3.82-1 .307-2.157-1.612-3.115-3.153-1.573m107.287 5.083c.59 5.129 3.259 6.78 3.879 2.398.538-3.8-.702-7.148-2.648-7.148-1.53 0-1.701.661-1.231 4.75m-93.287-3.083c-.367.366-.667 1.44-.667 2.385 0 .945-1.163 2.48-2.584 3.411-2.46 1.612-2.496 1.76-.75 3.083 3.112 2.359 4.611 1.796 4.121-1.546-.35-2.381-.071-3 1.351-3 .985 0 2.273.9 2.862 2 1.498 2.799 4.227 2.621 3.82-.25-.201-1.409-1.123-2.365-2.468-2.556-1.181-.169-2.377-1.181-2.656-2.25-.513-1.962-1.802-2.505-3.029-1.277m-35.611 1.298c-1.134.701-1.177 1.184-.211 2.348 1.956 2.357 6.073 2.71 7.193.616.532-.994.629-1.998.215-2.23-2.002-1.123-5.92-1.523-7.197-.734m25.902.585c-1.06 1.277-1.01 1.827.282 3.119 1.987 1.986 3.76.936 3.76-2.228 0-2.777-2.093-3.238-4.042-.891m-17.291 1.117c-1.05 1.05-.779 4.146.429 4.892 1.556.962 4.297-2.093 3.572-3.981-.618-1.612-2.803-2.11-4.001-.911m168.766 2.795c-3.147 4.803-3.103 15.538.063 15.538 3.529 0 7.093-9.684 5.425-14.739-1.282-3.885-3.276-4.175-5.488-.799m-157.473.612c-.933 1.743-.793 2.157.873 2.593 1.09.285 2.206 1.374 2.48 2.42.709 2.712 3.531 3.498 5.498 1.531 2.014-2.015.547-5.118-2.42-5.118-1.04 0-2.214-.787-2.609-1.75-.959-2.338-2.465-2.21-3.822.324m81.235 2.426c.02 1.65.244 2.204.498 1.231.254-.973.237-2.323-.037-3-.274-.677-.481.119-.461 1.769m-102.815-.048c-.812 2.117.567 3.795 2.668 3.246 1.005-.263 2.062.146 2.356.913.955 2.488 3.596 1.586 3.596-1.228 0-2.124-.376-2.518-2-2.093-1.3.34-2 .03-2-.884 0-1.856-3.905-1.818-4.62.046m63.093-.408c-.807 1.305 1.304 3.956 3.149 3.956.803 0 1.378-1.043 1.378-2.5 0-1.808-.537-2.5-1.941-2.5-1.068 0-2.231.47-2.586 1.044m102.771 1.206c-1.774 1.897-2.145 3.697-2.365 11.476-.143 5.074.039 9.526.406 9.892.367.367 1.353.098 2.191-.598 1.111-.922 1.524-3.246 1.524-8.583 0-4.026.403-7.568.895-7.872 1.244-.769 2.105 1.882 2.105 6.482 0 2.853.528 4.165 1.99 4.948 1.929 1.032 1.971.829 1.366-6.715-.853-10.657-3.664-13.786-8.112-9.03M31.04 151.452c-1.735 2.091-.87 4.998 1.593 5.351 2.516.361 3.42-1.453 2.268-4.553-.968-2.604-2.158-2.85-3.861-.798m127.271-.226c-.536.701-1.943 3.186-3.126 5.524-1.954 3.857-1.993 4.241-.419 4.15 2.796-.16 7.015-1.685 4.984-1.8-2.032-.116-2.083-.452-.767-5.04 1.079-3.763.833-4.802-.672-2.834m16.574 1.583c-.888.93-2.16 3.379-2.827 5.441-.667 2.063-1.556 3.75-1.975 3.75-.67 0-3.083 4.342-3.083 5.547 0 2.615 6.894-3.842 6.99-6.547.03-.825.922-3.412 1.983-5.75 2.019-4.447 1.64-5.296-1.088-2.441m-43.191 1.906c-.313 1.532-1.239 3.685-2.058 4.785-1.437 1.932-1.589 1.941-4.466.25-3.572-2.099-4.17-2.16-4.17-.424 0 1.633-3.494 4.986-7.5 7.197l-3 1.657 3.434-.602c1.889-.331 4.236-1.326 5.214-2.212 2.912-2.635 10.158-3.522 14.951-1.831 2.284.806 5.919 1.465 8.078 1.465 3.541 0 4.068.343 5.387 3.5 1.96 4.69 3.371 4.435 2.71-.49-.35-2.613-.058-4.577.846-5.688 1.233-1.516 1.167-1.604-.62-.825-1.1.479-4.377 1.055-7.281 1.281-7.138.555-10.479-1.533-10.069-6.294.364-4.229-.69-5.51-1.456-1.769m-80.612 1.132c-.68 1.27-.629 2.206.165 3 2.743 2.743 6.218-.376 3.742-3.36-1.638-1.974-2.711-1.875-3.907.36m27.605-.473c-.313.814.023 1.97.746 2.57 1.759 1.461 4.743.214 4.356-1.82-.4-2.101-4.361-2.683-5.102-.75M21 158.5c0 1.982.439 2.562 1.75 2.31.962-.186 1.75-1.225 1.75-2.31s-.788-2.124-1.75-2.31c-1.311-.252-1.75.328-1.75 2.31m5.667-.833c-1.03 1.029-.789 4.14.377 4.86 1.462.904 3.956-1.397 3.956-3.649 0-1.837-2.898-2.647-4.333-1.211m79.205 12.997c-1.255 1.522-1.159 1.553 1.128.364 3.352-1.742 3.605-2.028 1.789-2.028-.849 0-2.162.749-2.917 1.664M153 174.771c0 .541.698 1.563 1.55 2.271 1.281 1.062 1.84.997 3.214-.378 1.527-1.526 1.529-1.664.032-1.664-.898 0-2.344-.273-3.214-.607-.87-.334-1.582-.164-1.582.378M19.5 176c-.34.55-.141 1 .441 1S21 176.55 21 176s-.198-1-.441-1-.719.45-1.059 1m77.5 1c0 .55.423 1 .941 1s1.219-.45 1.559-1c.34-.55-.084-1-.941-1S97 176.45 97 177m30.232 1c-1.054 1.688-.999 2 .356 2 .883 0 3.656 1.805 6.163 4.012 6.054 5.329 6.593 4.363.829-1.484-2.519-2.555-4.58-5.069-4.58-5.587 0-1.598-1.456-1.041-2.768 1.059M20.61 179.573c-.42 1.096-.099 1.475 1.061 1.25.915-.178 1.851-.885 2.079-1.573.613-1.839-2.43-1.526-3.14.323m5.39 5.549c0 1.774.247 1.918 1.5.878.825-.685 1.5-1.64 1.5-2.122 0-.483-.675-.878-1.5-.878-.862 0-1.5.902-1.5 2.122m101.122 10.782c-1.768 1.119-.569 3.096 1.878 3.096s3.646-1.977 1.878-3.096c-.758-.481-1.603-.873-1.878-.873-.275 0-1.12.392-1.878.873M0 232.011c0 1.381 256.206.871 256.667-.511.221-.664-42.83-.914-128.167-.742-84.508.169-128.5.598-128.5 1.253" fill="#1976D2" fill-rule="evenodd"/></svg>